<?xml version="1.0" encoding="UTF-8" standalone="no"?>
<!DOCTYPE svg PUBLIC "-//W3C//DTD SVG 1.1//EN"
 "http://www.w3.org/Graphics/SVG/1.1/DTD/svg11.dtd">
<!-- Generated by graphviz version 2.44.1 (0)
 -->
<!-- Title: DockerDeps Pages: 1 -->
<svg width="1649pt" height="693pt"
 viewBox="0.00 0.00 1649.00 693.25" xmlns="http://www.w3.org/2000/svg" xmlns:xlink="http://www.w3.org/1999/xlink">
<g id="graph0" class="graph" transform="scale(1 1) rotate(0) translate(4 689.25)">
<title>DockerDeps</title>
<polygon fill="white" stroke="transparent" points="-4,4 -4,-689.25 1645,-689.25 1645,4 -4,4"/>
<g id="clust1" class="cluster">
<title>clusterDockerfile</title>
<polygon fill="none" stroke="royalblue" points="129,-116 129,-606.25 1178,-606.25 1178,-116 129,-116"/>
<text text-anchor="middle" x="653.5" y="-591.05" font-family="Times,serif" font-size="14.00">docker/&lt;distro&gt;/Dockerfile</text>
</g>
<g id="clust2" class="cluster">
<title>clusterCache</title>
<polygon fill="none" stroke="royalblue" points="48,-8 48,-83 1423,-83 1423,-8 48,-8"/>
<text text-anchor="middle" x="735.5" y="-67.8" font-family="Times,serif" font-size="14.00">cache/&lt;distro&gt;/</text>
</g>
<!-- DISTRO_IMG -->
<g id="node1" class="node">
<title>DISTRO_IMG</title>
<path fill="royalblue" stroke="black" d="M975,-680.98C975,-682.78 946.31,-684.25 911,-684.25 875.69,-684.25 847,-682.78 847,-680.98 847,-680.98 847,-651.52 847,-651.52 847,-649.72 875.69,-648.25 911,-648.25 946.31,-648.25 975,-649.72 975,-651.52 975,-651.52 975,-680.98 975,-680.98"/>
<path fill="none" stroke="black" d="M975,-680.98C975,-679.17 946.31,-677.7 911,-677.7 875.69,-677.7 847,-679.17 847,-680.98"/>
<text text-anchor="middle" x="911" y="-662.55" font-family="Times,serif" font-size="14.00">&lt;distro&gt;:latest</text>
</g>
<!-- ENV_IMG -->
<g id="node5" class="node">
<title>ENV_IMG</title>
<path fill="royalblue" stroke="black" d="M1170,-570.6C1170,-573.24 1121.14,-575.38 1061,-575.38 1000.86,-575.38 952,-573.24 952,-570.6 952,-570.6 952,-527.65 952,-527.65 952,-525.01 1000.86,-522.87 1061,-522.87 1121.14,-522.87 1170,-525.01 1170,-527.65 1170,-527.65 1170,-570.6 1170,-570.6"/>
<path fill="none" stroke="black" d="M1170,-570.6C1170,-567.97 1121.14,-565.83 1061,-565.83 1000.86,-565.83 952,-567.97 952,-570.6"/>
<text text-anchor="middle" x="1061" y="-552.92" font-family="Times,serif" font-size="14.00">python&#45;native:&lt;distro&gt;_env</text>
<text text-anchor="middle" x="1061" y="-537.92" font-family="Times,serif" font-size="14.00">env</text>
</g>
<!-- DISTRO_IMG&#45;&gt;ENV_IMG -->
<g id="edge6" class="edge">
<title>DISTRO_IMG&#45;&gt;ENV_IMG</title>
<path fill="none" stroke="black" d="M933.46,-648.01C956.29,-630.49 992.19,-602.94 1020.09,-581.52"/>
<polygon fill="black" stroke="black" points="1022.3,-584.24 1028.1,-575.38 1018.04,-578.69 1022.3,-584.24"/>
</g>
<!-- PKG -->
<g id="node2" class="node">
<title>PKG</title>
<polygon fill="royalblue" stroke="black" points="1128.5,-685.25 997.5,-685.25 993.5,-681.25 993.5,-647.25 1124.5,-647.25 1128.5,-651.25 1128.5,-685.25"/>
<polyline fill="none" stroke="black" points="1124.5,-681.25 993.5,-681.25 "/>
<polyline fill="none" stroke="black" points="1124.5,-681.25 1124.5,-647.25 "/>
<polyline fill="none" stroke="black" points="1124.5,-681.25 1128.5,-685.25 "/>
<text text-anchor="middle" x="1061" y="-670.05" font-family="Times,serif" font-size="14.00">Build packages</text>
<text text-anchor="middle" x="1061" y="-655.05" font-family="Times,serif" font-size="14.00">e.g. cmake, g++</text>
</g>
<!-- PKG&#45;&gt;ENV_IMG -->
<g id="edge7" class="edge">
<title>PKG&#45;&gt;ENV_IMG</title>
<path fill="none" stroke="black" stroke-dasharray="5,2" d="M1061,-647.01C1061,-630.59 1061,-606.01 1061,-585.72"/>
<polygon fill="black" stroke="black" points="1064.5,-585.56 1061,-575.56 1057.5,-585.56 1064.5,-585.56"/>
<text text-anchor="middle" x="1083.5" y="-618.05" font-family="Times,serif" font-size="14.00">install</text>
</g>
<!-- PYPKG -->
<g id="node3" class="node">
<title>PYPKG</title>
<polygon fill="gold" stroke="black" points="1283.5,-685.25 1150.5,-685.25 1146.5,-681.25 1146.5,-647.25 1279.5,-647.25 1283.5,-651.25 1283.5,-685.25"/>
<polyline fill="none" stroke="black" points="1279.5,-681.25 1146.5,-681.25 "/>
<polyline fill="none" stroke="black" points="1279.5,-681.25 1279.5,-647.25 "/>
<polyline fill="none" stroke="black" points="1279.5,-681.25 1283.5,-685.25 "/>
<text text-anchor="middle" x="1215" y="-670.05" font-family="Times,serif" font-size="14.00">Python packages</text>
<text text-anchor="middle" x="1215" y="-655.05" font-family="Times,serif" font-size="14.00">e.g. python&#45;dev</text>
</g>
<!-- PYPKG&#45;&gt;ENV_IMG -->
<g id="edge8" class="edge">
<title>PYPKG&#45;&gt;ENV_IMG</title>
<path fill="none" stroke="black" stroke-dasharray="5,2" d="M1190.6,-647.01C1167.05,-629.41 1130.94,-602.41 1102.81,-581.38"/>
<polygon fill="black" stroke="black" points="1104.84,-578.53 1094.74,-575.35 1100.65,-584.14 1104.84,-578.53"/>
<text text-anchor="middle" x="1187.5" y="-618.05" font-family="Times,serif" font-size="14.00">install</text>
</g>
<!-- SRC -->
<g id="node4" class="node">
<title>SRC</title>
<polygon fill="royalblue" stroke="black" points="1261.5,-567.12 1258.5,-571.12 1237.5,-571.12 1234.5,-567.12 1188.5,-567.12 1188.5,-531.12 1261.5,-531.12 1261.5,-567.12"/>
<text text-anchor="middle" x="1225" y="-545.42" font-family="Times,serif" font-size="14.00">git repo</text>
</g>
<!-- DEVEL_IMG -->
<g id="node6" class="node">
<title>DEVEL_IMG</title>
<path fill="royalblue" stroke="black" d="M1170,-467.35C1170,-469.99 1118.46,-472.13 1055,-472.13 991.54,-472.13 940,-469.99 940,-467.35 940,-467.35 940,-424.4 940,-424.4 940,-421.76 991.54,-419.62 1055,-419.62 1118.46,-419.62 1170,-421.76 1170,-424.4 1170,-424.4 1170,-467.35 1170,-467.35"/>
<path fill="none" stroke="black" d="M1170,-467.35C1170,-464.72 1118.46,-462.58 1055,-462.58 991.54,-462.58 940,-464.72 940,-467.35"/>
<text text-anchor="middle" x="1055" y="-449.68" font-family="Times,serif" font-size="14.00">python&#45;native:&lt;distro&gt;_devel</text>
<text text-anchor="middle" x="1055" y="-434.68" font-family="Times,serif" font-size="14.00">devel</text>
</g>
<!-- SRC&#45;&gt;DEVEL_IMG -->
<g id="edge9" class="edge">
<title>SRC&#45;&gt;DEVEL_IMG</title>
<path fill="none" stroke="black" stroke-dasharray="5,2" d="M1196.16,-530.95C1171.61,-516.33 1135.74,-494.96 1106.3,-477.43"/>
<polygon fill="black" stroke="black" points="1107.78,-474.23 1097.39,-472.12 1104.2,-480.25 1107.78,-474.23"/>
<text text-anchor="middle" x="1167" y="-493.8" font-family="Times,serif" font-size="14.00">copy</text>
</g>
<!-- ENV_IMG&#45;&gt;DEVEL_IMG -->
<g id="edge1" class="edge">
<title>ENV_IMG&#45;&gt;DEVEL_IMG</title>
<path fill="none" stroke="black" d="M1059.5,-522.84C1058.78,-510.63 1057.9,-495.79 1057.11,-482.47"/>
<polygon fill="black" stroke="black" points="1060.59,-481.97 1056.5,-472.19 1053.6,-482.38 1060.59,-481.97"/>
</g>
<!-- INSTALL_DEVEL_IMG -->
<g id="node10" class="node">
<title>INSTALL_DEVEL_IMG</title>
<path fill="royalblue" stroke="black" d="M1169.5,-274.85C1169.5,-277.49 1106.53,-279.63 1029,-279.63 951.47,-279.63 888.5,-277.49 888.5,-274.85 888.5,-274.85 888.5,-231.9 888.5,-231.9 888.5,-229.26 951.47,-227.12 1029,-227.12 1106.53,-227.12 1169.5,-229.26 1169.5,-231.9 1169.5,-231.9 1169.5,-274.85 1169.5,-274.85"/>
<path fill="none" stroke="black" d="M1169.5,-274.85C1169.5,-272.22 1106.53,-270.08 1029,-270.08 951.47,-270.08 888.5,-272.22 888.5,-274.85"/>
<text text-anchor="middle" x="1029" y="-257.18" font-family="Times,serif" font-size="14.00">python&#45;native:&lt;distro&gt;_install_devel</text>
<text text-anchor="middle" x="1029" y="-242.18" font-family="Times,serif" font-size="14.00">install_devel</text>
</g>
<!-- ENV_IMG&#45;&gt;INSTALL_DEVEL_IMG -->
<g id="edge4" class="edge">
<title>ENV_IMG&#45;&gt;INSTALL_DEVEL_IMG</title>
<path fill="none" stroke="black" d="M989.84,-523.23C966.92,-511.44 944.07,-494.8 931,-472 899.72,-417.44 903.35,-386.99 931,-330.5 939.87,-312.37 955.37,-297.32 971.46,-285.52"/>
<polygon fill="black" stroke="black" points="973.69,-288.23 979.9,-279.64 969.69,-282.49 973.69,-288.23"/>
</g>
<!-- ENV_TAR -->
<g id="node13" class="node">
<title>ENV_TAR</title>
<polygon fill="royalblue" stroke="black" points="697,-52 583,-52 583,-16 703,-16 703,-46 697,-52"/>
<polyline fill="none" stroke="black" points="697,-52 697,-46 "/>
<polyline fill="none" stroke="black" points="703,-46 697,-46 "/>
<text text-anchor="middle" x="643" y="-30.3" font-family="Times,serif" font-size="14.00">docker_env.tar</text>
</g>
<!-- ENV_IMG&#45;&gt;ENV_TAR -->
<g id="edge10" class="edge">
<title>ENV_IMG&#45;&gt;ENV_TAR</title>
<path fill="none" stroke="red" d="M964.54,-524.39C863.09,-498.74 718,-459.8 718,-446.88 718,-446.88 718,-446.88 718,-149.12 718,-113.49 692.15,-80.37 670.81,-59.08"/>
<polygon fill="red" stroke="red" points="673.13,-56.46 663.49,-52.07 668.29,-61.52 673.13,-56.46"/>
<text text-anchor="middle" x="808.5" y="-301.3" font-family="Times,serif" font-size="14.00">make save_&lt;distro&gt;_env</text>
</g>
<!-- BUILD_IMG -->
<g id="node7" class="node">
<title>BUILD_IMG</title>
<path fill="royalblue" stroke="black" d="M1168,-378.1C1168,-380.74 1116.9,-382.88 1054,-382.88 991.1,-382.88 940,-380.74 940,-378.1 940,-378.1 940,-335.15 940,-335.15 940,-332.51 991.1,-330.37 1054,-330.37 1116.9,-330.37 1168,-332.51 1168,-335.15 1168,-335.15 1168,-378.1 1168,-378.1"/>
<path fill="none" stroke="black" d="M1168,-378.1C1168,-375.47 1116.9,-373.33 1054,-373.33 991.1,-373.33 940,-375.47 940,-378.1"/>
<text text-anchor="middle" x="1054" y="-360.43" font-family="Times,serif" font-size="14.00">python&#45;native:&lt;distro&gt;_build</text>
<text text-anchor="middle" x="1054" y="-345.43" font-family="Times,serif" font-size="14.00">build</text>
</g>
<!-- DEVEL_IMG&#45;&gt;BUILD_IMG -->
<g id="edge2" class="edge">
<title>DEVEL_IMG&#45;&gt;BUILD_IMG</title>
<path fill="none" stroke="black" d="M1054.71,-419.64C1054.62,-411.32 1054.51,-401.91 1054.41,-392.97"/>
<polygon fill="black" stroke="black" points="1057.9,-392.76 1054.29,-382.8 1050.9,-392.84 1057.9,-392.76"/>
</g>
<!-- DEVEL_TAR -->
<g id="node14" class="node">
<title>DEVEL_TAR</title>
<polygon fill="royalblue" stroke="black" points="1408.5,-52 1279.5,-52 1279.5,-16 1414.5,-16 1414.5,-46 1408.5,-52"/>
<polyline fill="none" stroke="black" points="1408.5,-52 1408.5,-46 "/>
<polyline fill="none" stroke="black" points="1414.5,-46 1408.5,-46 "/>
<text text-anchor="middle" x="1347" y="-30.3" font-family="Times,serif" font-size="14.00">docker_devel.tar</text>
</g>
<!-- DEVEL_IMG&#45;&gt;DEVEL_TAR -->
<g id="edge11" class="edge">
<title>DEVEL_IMG&#45;&gt;DEVEL_TAR</title>
<path fill="none" stroke="red" d="M1170.26,-441.4C1286.22,-434.68 1448,-415.02 1448,-357.62 1448,-357.62 1448,-357.62 1448,-149.12 1448,-110.04 1414.37,-78.06 1385.92,-58"/>
<polygon fill="red" stroke="red" points="1387.55,-54.88 1377.3,-52.17 1383.62,-60.67 1387.55,-54.88"/>
<text text-anchor="middle" x="1544.5" y="-249.68" font-family="Times,serif" font-size="14.00">make save_&lt;distro&gt;_devel</text>
</g>
<!-- BUILD_IMG&#45;&gt;INSTALL_DEVEL_IMG -->
<g id="edge3" class="edge">
<title>BUILD_IMG&#45;&gt;INSTALL_DEVEL_IMG</title>
<path fill="none" stroke="black" stroke-dasharray="5,2" d="M1047.76,-330.34C1044.71,-318.01 1041,-302.99 1037.69,-289.57"/>
<polygon fill="black" stroke="black" points="1041.05,-288.56 1035.25,-279.69 1034.25,-290.24 1041.05,-288.56"/>
<text text-anchor="middle" x="1084" y="-301.3" font-family="Times,serif" font-size="14.00">copy install</text>
</g>
<!-- BUILD_TAR -->
<g id="node15" class="node">
<title>BUILD_TAR</title>
<polygon fill="royalblue" stroke="black" points="848.5,-52 721.5,-52 721.5,-16 854.5,-16 854.5,-46 848.5,-52"/>
<polyline fill="none" stroke="black" points="848.5,-52 848.5,-46 "/>
<polyline fill="none" stroke="black" points="854.5,-46 848.5,-46 "/>
<text text-anchor="middle" x="788" y="-30.3" font-family="Times,serif" font-size="14.00">docker_build.tar</text>
</g>
<!-- BUILD_IMG&#45;&gt;BUILD_TAR -->
<g id="edge12" class="edge">
<title>BUILD_IMG&#45;&gt;BUILD_TAR</title>
<path fill="none" stroke="red" d="M973.15,-330.97C941.63,-318.79 906.54,-301.83 879,-279.5 811.17,-224.51 793.9,-113.68 789.5,-62.3"/>
<polygon fill="red" stroke="red" points="792.99,-61.99 788.74,-52.28 786.01,-62.52 792.99,-61.99"/>
<text text-anchor="middle" x="921.5" y="-198.05" font-family="Times,serif" font-size="14.00">make save_&lt;distro&gt;_build</text>
</g>
<!-- TEST_IMG -->
<g id="node8" class="node">
<title>TEST_IMG</title>
<path fill="royalblue" stroke="black" d="M357,-570.6C357,-573.24 307.7,-575.38 247,-575.38 186.3,-575.38 137,-573.24 137,-570.6 137,-570.6 137,-527.65 137,-527.65 137,-525.01 186.3,-522.87 247,-522.87 307.7,-522.87 357,-525.01 357,-527.65 357,-527.65 357,-570.6 357,-570.6"/>
<path fill="none" stroke="black" d="M357,-570.6C357,-567.97 307.7,-565.83 247,-565.83 186.3,-565.83 137,-567.97 137,-570.6"/>
<text text-anchor="middle" x="247" y="-552.92" font-family="Times,serif" font-size="14.00">python&#45;native:&lt;distro&gt;_test</text>
<text text-anchor="middle" x="247" y="-537.92" font-family="Times,serif" font-size="14.00">test</text>
</g>
<!-- TEST_TAR -->
<g id="node16" class="node">
<title>TEST_TAR</title>
<polygon fill="royalblue" stroke="black" points="175.5,-52 56.5,-52 56.5,-16 181.5,-16 181.5,-46 175.5,-52"/>
<polyline fill="none" stroke="black" points="175.5,-52 175.5,-46 "/>
<polyline fill="none" stroke="black" points="181.5,-46 175.5,-46 "/>
<text text-anchor="middle" x="119" y="-30.3" font-family="Times,serif" font-size="14.00">docker_test.tar</text>
</g>
<!-- TEST_IMG&#45;&gt;TEST_TAR -->
<g id="edge13" class="edge">
<title>TEST_IMG&#45;&gt;TEST_TAR</title>
<path fill="none" stroke="red" d="M136.86,-544.04C71,-534.99 0,-510.48 0,-446.88 0,-446.88 0,-446.88 0,-149.12 0,-107.34 38.68,-76.11 71.94,-56.97"/>
<polygon fill="red" stroke="red" points="73.63,-60.04 80.69,-52.13 70.25,-53.91 73.63,-60.04"/>
<text text-anchor="middle" x="91.5" y="-301.3" font-family="Times,serif" font-size="14.00">make save_&lt;distro&gt;_test</text>
</g>
<!-- INSTALL_ENV_IMG -->
<g id="node9" class="node">
<title>INSTALL_ENV_IMG</title>
<path fill="royalblue" stroke="black" d="M644.5,-570.6C644.5,-573.24 584.21,-575.38 510,-575.38 435.79,-575.38 375.5,-573.24 375.5,-570.6 375.5,-570.6 375.5,-527.65 375.5,-527.65 375.5,-525.01 435.79,-522.87 510,-522.87 584.21,-522.87 644.5,-525.01 644.5,-527.65 644.5,-527.65 644.5,-570.6 644.5,-570.6"/>
<path fill="none" stroke="black" d="M644.5,-570.6C644.5,-567.97 584.21,-565.83 510,-565.83 435.79,-565.83 375.5,-567.97 375.5,-570.6"/>
<text text-anchor="middle" x="510" y="-552.92" font-family="Times,serif" font-size="14.00">python&#45;native:&lt;distro&gt;_install_env</text>
<text text-anchor="middle" x="510" y="-537.92" font-family="Times,serif" font-size="14.00">install_env</text>
</g>
<!-- INSTALL_ENV_TAR -->
<g id="node17" class="node">
<title>INSTALL_ENV_TAR</title>
<polygon fill="royalblue" stroke="black" points="364.5,-52 199.5,-52 199.5,-16 370.5,-16 370.5,-46 364.5,-52"/>
<polyline fill="none" stroke="black" points="364.5,-52 364.5,-46 "/>
<polyline fill="none" stroke="black" points="370.5,-46 364.5,-46 "/>
<text text-anchor="middle" x="285" y="-30.3" font-family="Times,serif" font-size="14.00">docker_install_env.tar</text>
</g>
<!-- INSTALL_ENV_IMG&#45;&gt;INSTALL_ENV_TAR -->
<g id="edge14" class="edge">
<title>INSTALL_ENV_IMG&#45;&gt;INSTALL_ENV_TAR</title>
<path fill="none" stroke="red" d="M407.08,-523.78C318.89,-501.42 206,-468.57 206,-446.88 206,-446.88 206,-446.88 206,-149.12 206,-113.13 232.9,-80.28 255.31,-59.16"/>
<polygon fill="red" stroke="red" points="257.93,-61.51 262.99,-52.2 253.23,-56.32 257.93,-61.51"/>
<text text-anchor="middle" x="322" y="-301.3" font-family="Times,serif" font-size="14.00">make save_&lt;distro&gt;_install_env</text>
</g>
<!-- INSTALL_BUILD_IMG -->
<g id="node11" class="node">
<title>INSTALL_BUILD_IMG</title>
<path fill="royalblue" stroke="black" d="M1139.5,-171.6C1139.5,-174.24 1076.97,-176.38 1000,-176.38 923.03,-176.38 860.5,-174.24 860.5,-171.6 860.5,-171.6 860.5,-128.65 860.5,-128.65 860.5,-126.01 923.03,-123.87 1000,-123.87 1076.97,-123.87 1139.5,-126.01 1139.5,-128.65 1139.5,-128.65 1139.5,-171.6 1139.5,-171.6"/>
<path fill="none" stroke="black" d="M1139.5,-171.6C1139.5,-168.97 1076.97,-166.83 1000,-166.83 923.03,-166.83 860.5,-168.97 860.5,-171.6"/>
<text text-anchor="middle" x="1000" y="-153.93" font-family="Times,serif" font-size="14.00">python&#45;native:&lt;distro&gt;_install_build</text>
<text text-anchor="middle" x="1000" y="-138.93" font-family="Times,serif" font-size="14.00">install_build</text>
</g>
<!-- INSTALL_DEVEL_IMG&#45;&gt;INSTALL_BUILD_IMG -->
<g id="edge5" class="edge">
<title>INSTALL_DEVEL_IMG&#45;&gt;INSTALL_BUILD_IMG</title>
<path fill="none" stroke="black" d="M1029.13,-227.04C1028.59,-216.69 1027.2,-204.71 1024,-194.25 1023.1,-191.31 1021.98,-188.35 1020.73,-185.43"/>
<polygon fill="black" stroke="black" points="1023.83,-183.81 1016.33,-176.33 1017.53,-186.86 1023.83,-183.81"/>
</g>
<!-- INSTALL_DEVEL_TAR -->
<g id="node18" class="node">
<title>INSTALL_DEVEL_TAR</title>
<polygon fill="royalblue" stroke="black" points="1255,-52 1075,-52 1075,-16 1261,-16 1261,-46 1255,-52"/>
<polyline fill="none" stroke="black" points="1255,-52 1255,-46 "/>
<polyline fill="none" stroke="black" points="1261,-46 1255,-46 "/>
<text text-anchor="middle" x="1168" y="-30.3" font-family="Times,serif" font-size="14.00">docker_install_devel.tar</text>
</g>
<!-- INSTALL_DEVEL_IMG&#45;&gt;INSTALL_DEVEL_TAR -->
<g id="edge15" class="edge">
<title>INSTALL_DEVEL_IMG&#45;&gt;INSTALL_DEVEL_TAR</title>
<path fill="none" stroke="red" d="M1088.92,-227.09C1111.05,-214.85 1134.29,-198.02 1149,-176.25 1171.95,-142.29 1173.15,-93.13 1171.15,-62.67"/>
<polygon fill="red" stroke="red" points="1174.6,-62.03 1170.29,-52.35 1167.63,-62.61 1174.6,-62.03"/>
<text text-anchor="middle" x="1291" y="-146.43" font-family="Times,serif" font-size="14.00">make save_&lt;distro&gt;_install_devel</text>
</g>
<!-- INSTALL_BUILD_TAR -->
<g id="node19" class="node">
<title>INSTALL_BUILD_TAR</title>
<polygon fill="royalblue" stroke="black" points="1051,-52 873,-52 873,-16 1057,-16 1057,-46 1051,-52"/>
<polyline fill="none" stroke="black" points="1051,-52 1051,-46 "/>
<polyline fill="none" stroke="black" points="1057,-46 1051,-46 "/>
<text text-anchor="middle" x="965" y="-30.3" font-family="Times,serif" font-size="14.00">docker_install_build.tar</text>
</g>
<!-- INSTALL_BUILD_IMG&#45;&gt;INSTALL_BUILD_TAR -->
<g id="edge16" class="edge">
<title>INSTALL_BUILD_IMG&#45;&gt;INSTALL_BUILD_TAR</title>
<path fill="none" stroke="red" d="M936.2,-123.74C929.78,-118.78 924.12,-112.91 920,-106 910.6,-90.25 921.28,-72.84 934.59,-59.21"/>
<polygon fill="red" stroke="red" points="937.29,-61.47 942.15,-52.06 932.48,-56.39 937.29,-61.47"/>
<text text-anchor="middle" x="1041" y="-94.8" font-family="Times,serif" font-size="14.00">make save_&lt;distro&gt;_install_build</text>
</g>
<!-- INSTALL_TEST_IMG -->
<g id="node12" class="node">
<title>INSTALL_TEST_IMG</title>
<path fill="royalblue" stroke="black" d="M933.5,-570.6C933.5,-573.24 872.77,-575.38 798,-575.38 723.23,-575.38 662.5,-573.24 662.5,-570.6 662.5,-570.6 662.5,-527.65 662.5,-527.65 662.5,-525.01 723.23,-522.87 798,-522.87 872.77,-522.87 933.5,-525.01 933.5,-527.65 933.5,-527.65 933.5,-570.6 933.5,-570.6"/>
<path fill="none" stroke="black" d="M933.5,-570.6C933.5,-567.97 872.77,-565.83 798,-565.83 723.23,-565.83 662.5,-567.97 662.5,-570.6"/>
<text text-anchor="middle" x="798" y="-552.92" font-family="Times,serif" font-size="14.00">python&#45;native:&lt;distro&gt;_install_test</text>
<text text-anchor="middle" x="798" y="-537.92" font-family="Times,serif" font-size="14.00">install_test</text>
</g>
<!-- INSTALL_TEST_TAR -->
<g id="node20" class="node">
<title>INSTALL_TEST_TAR</title>
<polygon fill="royalblue" stroke="black" points="559,-52 389,-52 389,-16 565,-16 565,-46 559,-52"/>
<polyline fill="none" stroke="black" points="559,-52 559,-46 "/>
<polyline fill="none" stroke="black" points="565,-46 559,-46 "/>
<text text-anchor="middle" x="477" y="-30.3" font-family="Times,serif" font-size="14.00">docker_install_test.tar</text>
</g>
<!-- INSTALL_TEST_IMG&#45;&gt;INSTALL_TEST_TAR -->
<g id="edge17" class="edge">
<title>INSTALL_TEST_IMG&#45;&gt;INSTALL_TEST_TAR</title>
<path fill="none" stroke="red" d="M681.55,-524.23C584.14,-502.57 461,-470.51 461,-446.88 461,-446.88 461,-446.88 461,-149.12 461,-119.24 466.45,-85.39 470.98,-62.36"/>
<polygon fill="red" stroke="red" points="474.47,-62.79 473.04,-52.3 467.61,-61.39 474.47,-62.79"/>
<text text-anchor="middle" x="578" y="-301.3" font-family="Times,serif" font-size="14.00">make save_&lt;distro&gt;_install_test</text>
</g>
</g>
</svg>
