<?xml version="1.0" encoding="UTF-8" standalone="no"?>
<!DOCTYPE svg PUBLIC "-//W3C//DTD SVG 1.1//EN"
 "http://www.w3.org/Graphics/SVG/1.1/DTD/svg11.dtd">
<!-- Generated by graphviz version 2.43.0 (0)
 -->
<!-- Title: DockerDeps Pages: 1 -->
<svg width="1287pt" height="900pt"
 viewBox="0.00 0.00 1287.00 899.75" xmlns="http://www.w3.org/2000/svg" xmlns:xlink="http://www.w3.org/1999/xlink">
<g id="graph0" class="graph" transform="scale(1 1) rotate(0) translate(4 895.75)">
<title>DockerDeps</title>
<polygon fill="white" stroke="transparent" points="-4,4 -4,-895.75 1283,-895.75 1283,4 -4,4"/>
<g id="clust1" class="cluster">
<title>clusterDockerfile</title>
<polygon fill="none" stroke="royalblue" points="634,-116 634,-812.75 1046,-812.75 1046,-116 634,-116"/>
<text text-anchor="middle" x="840" y="-797.55" font-family="Times,serif" font-size="14.00">docker/&lt;distro&gt;/Dockerfile</text>
</g>
<g id="clust2" class="cluster">
<title>clusterCache</title>
<polygon fill="none" stroke="royalblue" points="8,-8 8,-83 1125,-83 1125,-8 8,-8"/>
<text text-anchor="middle" x="566.5" y="-67.8" font-family="Times,serif" font-size="14.00">cache/&lt;distro&gt;/</text>
</g>
<!-- DISTRO_IMG -->
<g id="node1" class="node">
<title>DISTRO_IMG</title>
<path fill="royalblue" stroke="black" d="M861,-887.48C861,-889.28 839.49,-890.75 813,-890.75 786.51,-890.75 765,-889.28 765,-887.48 765,-887.48 765,-858.02 765,-858.02 765,-856.22 786.51,-854.75 813,-854.75 839.49,-854.75 861,-856.22 861,-858.02 861,-858.02 861,-887.48 861,-887.48"/>
<path fill="none" stroke="black" d="M861,-887.48C861,-885.67 839.49,-884.2 813,-884.2 786.51,-884.2 765,-885.67 765,-887.48"/>
<text text-anchor="middle" x="813" y="-869.05" font-family="Times,serif" font-size="14.00">&lt;distro&gt;:latest</text>
</g>
<!-- ENV_IMG -->
<g id="node6" class="node">
<title>ENV_IMG</title>
<path fill="royalblue" stroke="black" d="M1017.5,-777.1C1017.5,-779.74 979.63,-781.88 933,-781.88 886.37,-781.88 848.5,-779.74 848.5,-777.1 848.5,-777.1 848.5,-734.15 848.5,-734.15 848.5,-731.51 886.37,-729.37 933,-729.37 979.63,-729.37 1017.5,-731.51 1017.5,-734.15 1017.5,-734.15 1017.5,-777.1 1017.5,-777.1"/>
<path fill="none" stroke="black" d="M1017.5,-777.1C1017.5,-774.47 979.63,-772.33 933,-772.33 886.37,-772.33 848.5,-774.47 848.5,-777.1"/>
<text text-anchor="middle" x="933" y="-759.42" font-family="Times,serif" font-size="14.00">python&#45;native:&lt;distro&gt;_env</text>
<text text-anchor="middle" x="933" y="-744.42" font-family="Times,serif" font-size="14.00">env</text>
</g>
<!-- DISTRO_IMG&#45;&gt;ENV_IMG -->
<g id="edge9" class="edge">
<title>DISTRO_IMG&#45;&gt;ENV_IMG</title>
<path fill="none" stroke="black" d="M830.97,-854.51C848.94,-837.27 877.03,-810.32 899.19,-789.06"/>
<polygon fill="black" stroke="black" points="901.66,-791.54 906.46,-782.09 896.82,-786.49 901.66,-791.54"/>
</g>
<!-- PKG -->
<g id="node2" class="node">
<title>PKG</title>
<polygon fill="royalblue" stroke="black" points="986.5,-891.75 883.5,-891.75 879.5,-887.75 879.5,-853.75 982.5,-853.75 986.5,-857.75 986.5,-891.75"/>
<polyline fill="none" stroke="black" points="982.5,-887.75 879.5,-887.75 "/>
<polyline fill="none" stroke="black" points="982.5,-887.75 982.5,-853.75 "/>
<polyline fill="none" stroke="black" points="982.5,-887.75 986.5,-891.75 "/>
<text text-anchor="middle" x="933" y="-876.55" font-family="Times,serif" font-size="14.00">Build packages</text>
<text text-anchor="middle" x="933" y="-861.55" font-family="Times,serif" font-size="14.00">e.g. cmake, g++</text>
</g>
<!-- PKG&#45;&gt;ENV_IMG -->
<g id="edge10" class="edge">
<title>PKG&#45;&gt;ENV_IMG</title>
<path fill="none" stroke="black" stroke-dasharray="5,2" d="M933,-853.51C933,-837.09 933,-812.51 933,-792.22"/>
<polygon fill="black" stroke="black" points="936.5,-792.06 933,-782.06 929.5,-792.06 936.5,-792.06"/>
<text text-anchor="middle" x="950" y="-824.55" font-family="Times,serif" font-size="14.00">install</text>
</g>
<!-- PYPKG -->
<g id="node3" class="node">
<title>PYPKG</title>
<polygon fill="gold" stroke="black" points="1113,-891.75 1009,-891.75 1005,-887.75 1005,-853.75 1109,-853.75 1113,-857.75 1113,-891.75"/>
<polyline fill="none" stroke="black" points="1109,-887.75 1005,-887.75 "/>
<polyline fill="none" stroke="black" points="1109,-887.75 1109,-853.75 "/>
<polyline fill="none" stroke="black" points="1109,-887.75 1113,-891.75 "/>
<text text-anchor="middle" x="1059" y="-876.55" font-family="Times,serif" font-size="14.00">Python packages</text>
<text text-anchor="middle" x="1059" y="-861.55" font-family="Times,serif" font-size="14.00">e.g. python&#45;dev</text>
</g>
<!-- PYPKG&#45;&gt;ENV_IMG -->
<g id="edge11" class="edge">
<title>PYPKG&#45;&gt;ENV_IMG</title>
<path fill="none" stroke="black" stroke-dasharray="5,2" d="M1039.03,-853.51C1020.08,-836.19 991.18,-809.78 968.33,-788.9"/>
<polygon fill="black" stroke="black" points="970.58,-786.22 960.84,-782.06 965.86,-791.39 970.58,-786.22"/>
<text text-anchor="middle" x="1035" y="-824.55" font-family="Times,serif" font-size="14.00">install</text>
</g>
<!-- SRC -->
<g id="node4" class="node">
<title>SRC</title>
<polygon fill="royalblue" stroke="black" points="625.5,-773.62 622.5,-777.62 601.5,-777.62 598.5,-773.62 566.5,-773.62 566.5,-737.62 625.5,-737.62 625.5,-773.62"/>
<text text-anchor="middle" x="596" y="-751.92" font-family="Times,serif" font-size="14.00">git repo</text>
</g>
<!-- DEVEL_IMG -->
<g id="node7" class="node">
<title>DEVEL_IMG</title>
<path fill="royalblue" stroke="black" d="M821.5,-673.85C821.5,-676.49 781.38,-678.63 732,-678.63 682.62,-678.63 642.5,-676.49 642.5,-673.85 642.5,-673.85 642.5,-630.9 642.5,-630.9 642.5,-628.26 682.62,-626.12 732,-626.12 781.38,-626.12 821.5,-628.26 821.5,-630.9 821.5,-630.9 821.5,-673.85 821.5,-673.85"/>
<path fill="none" stroke="black" d="M821.5,-673.85C821.5,-671.22 781.38,-669.08 732,-669.08 682.62,-669.08 642.5,-671.22 642.5,-673.85"/>
<text text-anchor="middle" x="732" y="-656.17" font-family="Times,serif" font-size="14.00">python&#45;native:&lt;distro&gt;_devel</text>
<text text-anchor="middle" x="732" y="-641.17" font-family="Times,serif" font-size="14.00">devel</text>
</g>
<!-- SRC&#45;&gt;DEVEL_IMG -->
<g id="edge12" class="edge">
<title>SRC&#45;&gt;DEVEL_IMG</title>
<path fill="none" stroke="black" stroke-dasharray="5,2" d="M619.07,-737.45C638.46,-723.02 666.67,-702.01 690.04,-684.61"/>
<polygon fill="black" stroke="black" points="692.15,-687.4 698.08,-678.62 687.97,-681.79 692.15,-687.4"/>
<text text-anchor="middle" x="685.5" y="-700.3" font-family="Times,serif" font-size="14.00">copy</text>
</g>
<!-- SAMPLE -->
<g id="node5" class="node">
<title>SAMPLE</title>
<polygon fill="royalblue" stroke="black" points="1112,-477.88 1109,-481.88 1088,-481.88 1085,-477.88 1056,-477.88 1056,-441.88 1112,-441.88 1112,-477.88"/>
<text text-anchor="middle" x="1084" y="-456.18" font-family="Times,serif" font-size="14.00">sample</text>
</g>
<!-- INSTALL_DEVEL_IMG -->
<g id="node11" class="node">
<title>INSTALL_DEVEL_IMG</title>
<path fill="royalblue" stroke="black" d="M1038,-378.1C1038,-380.74 989.14,-382.88 929,-382.88 868.86,-382.88 820,-380.74 820,-378.1 820,-378.1 820,-335.15 820,-335.15 820,-332.51 868.86,-330.37 929,-330.37 989.14,-330.37 1038,-332.51 1038,-335.15 1038,-335.15 1038,-378.1 1038,-378.1"/>
<path fill="none" stroke="black" d="M1038,-378.1C1038,-375.47 989.14,-373.33 929,-373.33 868.86,-373.33 820,-375.47 820,-378.1"/>
<text text-anchor="middle" x="929" y="-360.43" font-family="Times,serif" font-size="14.00">python&#45;native:&lt;distro&gt;_install_devel</text>
<text text-anchor="middle" x="929" y="-345.43" font-family="Times,serif" font-size="14.00">install_devel</text>
</g>
<!-- SAMPLE&#45;&gt;INSTALL_DEVEL_IMG -->
<g id="edge13" class="edge">
<title>SAMPLE&#45;&gt;INSTALL_DEVEL_IMG</title>
<path fill="none" stroke="black" stroke-dasharray="5,2" d="M1061.12,-441.61C1057.44,-438.93 1053.64,-436.23 1050,-433.75 1027.11,-418.12 1001.16,-401.64 979.18,-388.03"/>
<polygon fill="black" stroke="black" points="981.01,-385.04 970.66,-382.77 977.33,-391 981.01,-385.04"/>
<text text-anchor="middle" x="1033.5" y="-404.55" font-family="Times,serif" font-size="14.00">copy</text>
</g>
<!-- ENV_IMG&#45;&gt;DEVEL_IMG -->
<g id="edge1" class="edge">
<title>ENV_IMG&#45;&gt;DEVEL_IMG</title>
<path fill="none" stroke="black" d="M883.06,-729.47C855.25,-715.46 820.47,-697.94 791.3,-683.24"/>
<polygon fill="black" stroke="black" points="792.54,-679.95 782.04,-678.58 789.39,-686.2 792.54,-679.95"/>
</g>
<!-- INSTALL_ENV_IMG -->
<g id="node10" class="node">
<title>INSTALL_ENV_IMG</title>
<path fill="royalblue" stroke="black" d="M1037.5,-481.35C1037.5,-483.99 990.66,-486.13 933,-486.13 875.34,-486.13 828.5,-483.99 828.5,-481.35 828.5,-481.35 828.5,-438.4 828.5,-438.4 828.5,-435.76 875.34,-433.62 933,-433.62 990.66,-433.62 1037.5,-435.76 1037.5,-438.4 1037.5,-438.4 1037.5,-481.35 1037.5,-481.35"/>
<path fill="none" stroke="black" d="M1037.5,-481.35C1037.5,-478.72 990.66,-476.58 933,-476.58 875.34,-476.58 828.5,-478.72 828.5,-481.35"/>
<text text-anchor="middle" x="933" y="-463.68" font-family="Times,serif" font-size="14.00">python&#45;native:&lt;distro&gt;_install_env</text>
<text text-anchor="middle" x="933" y="-448.68" font-family="Times,serif" font-size="14.00">install_env</text>
</g>
<!-- ENV_IMG&#45;&gt;INSTALL_ENV_IMG -->
<g id="edge4" class="edge">
<title>ENV_IMG&#45;&gt;INSTALL_ENV_IMG</title>
<path fill="none" stroke="black" d="M933,-729.33C933,-676.94 933,-556.49 933,-496.37"/>
<polygon fill="black" stroke="black" points="936.5,-496.22 933,-486.22 929.5,-496.22 936.5,-496.22"/>
</g>
<!-- ENV_TAR -->
<g id="node14" class="node">
<title>ENV_TAR</title>
<polygon fill="royalblue" stroke="black" points="1111.5,-52 1020.5,-52 1020.5,-16 1117.5,-16 1117.5,-46 1111.5,-52"/>
<polyline fill="none" stroke="black" points="1111.5,-52 1111.5,-46 "/>
<polyline fill="none" stroke="black" points="1117.5,-46 1111.5,-46 "/>
<text text-anchor="middle" x="1069" y="-30.3" font-family="Times,serif" font-size="14.00">docker_env.tar</text>
</g>
<!-- ENV_IMG&#45;&gt;ENV_TAR -->
<g id="edge14" class="edge">
<title>ENV_IMG&#45;&gt;ENV_TAR</title>
<path fill="none" stroke="red" d="M1017.79,-746.41C1074.96,-735.65 1140,-710.78 1140,-653.38 1140,-653.38 1140,-653.38 1140,-149.12 1140,-114.21 1115.75,-81.12 1095.59,-59.65"/>
<polygon fill="red" stroke="red" points="1097.89,-57 1088.4,-52.29 1092.88,-61.89 1097.89,-57"/>
<text text-anchor="middle" x="1209.5" y="-404.55" font-family="Times,serif" font-size="14.00">make save_&lt;distro&gt;_env</text>
</g>
<!-- BUILD_IMG -->
<g id="node8" class="node">
<title>BUILD_IMG</title>
<path fill="royalblue" stroke="black" d="M819.5,-584.6C819.5,-587.24 779.83,-589.38 731,-589.38 682.17,-589.38 642.5,-587.24 642.5,-584.6 642.5,-584.6 642.5,-541.65 642.5,-541.65 642.5,-539.01 682.17,-536.87 731,-536.87 779.83,-536.87 819.5,-539.01 819.5,-541.65 819.5,-541.65 819.5,-584.6 819.5,-584.6"/>
<path fill="none" stroke="black" d="M819.5,-584.6C819.5,-581.97 779.83,-579.83 731,-579.83 682.17,-579.83 642.5,-581.97 642.5,-584.6"/>
<text text-anchor="middle" x="731" y="-566.92" font-family="Times,serif" font-size="14.00">python&#45;native:&lt;distro&gt;_build</text>
<text text-anchor="middle" x="731" y="-551.92" font-family="Times,serif" font-size="14.00">build</text>
</g>
<!-- DEVEL_IMG&#45;&gt;BUILD_IMG -->
<g id="edge2" class="edge">
<title>DEVEL_IMG&#45;&gt;BUILD_IMG</title>
<path fill="none" stroke="black" d="M731.71,-626.14C731.62,-617.82 731.51,-608.41 731.41,-599.47"/>
<polygon fill="black" stroke="black" points="734.9,-599.26 731.29,-589.3 727.9,-599.34 734.9,-599.26"/>
</g>
<!-- DEVEL_TAR -->
<g id="node15" class="node">
<title>DEVEL_TAR</title>
<polygon fill="royalblue" stroke="black" points="116.5,-52 15.5,-52 15.5,-16 122.5,-16 122.5,-46 116.5,-52"/>
<polyline fill="none" stroke="black" points="116.5,-52 116.5,-46 "/>
<polyline fill="none" stroke="black" points="122.5,-46 116.5,-46 "/>
<text text-anchor="middle" x="69" y="-30.3" font-family="Times,serif" font-size="14.00">docker_devel.tar</text>
</g>
<!-- DEVEL_IMG&#45;&gt;DEVEL_TAR -->
<g id="edge15" class="edge">
<title>DEVEL_IMG&#45;&gt;DEVEL_TAR</title>
<path fill="none" stroke="red" d="M642.29,-649.58C450.53,-644.56 18,-626.33 18,-564.12 18,-564.12 18,-564.12 18,-149.12 18,-116.51 35.58,-82.85 50.09,-60.62"/>
<polygon fill="red" stroke="red" points="53.15,-62.36 55.87,-52.12 47.36,-58.43 53.15,-62.36"/>
<text text-anchor="middle" x="92" y="-352.93" font-family="Times,serif" font-size="14.00">make save_&lt;distro&gt;_devel</text>
</g>
<!-- TEST_IMG -->
<g id="node9" class="node">
<title>TEST_IMG</title>
<path fill="royalblue" stroke="black" d="M810,-481.35C810,-483.99 772.35,-486.13 726,-486.13 679.65,-486.13 642,-483.99 642,-481.35 642,-481.35 642,-438.4 642,-438.4 642,-435.76 679.65,-433.62 726,-433.62 772.35,-433.62 810,-435.76 810,-438.4 810,-438.4 810,-481.35 810,-481.35"/>
<path fill="none" stroke="black" d="M810,-481.35C810,-478.72 772.35,-476.58 726,-476.58 679.65,-476.58 642,-478.72 642,-481.35"/>
<text text-anchor="middle" x="726" y="-463.68" font-family="Times,serif" font-size="14.00">python&#45;native:&lt;distro&gt;_test</text>
<text text-anchor="middle" x="726" y="-448.68" font-family="Times,serif" font-size="14.00">test</text>
</g>
<!-- BUILD_IMG&#45;&gt;TEST_IMG -->
<g id="edge3" class="edge">
<title>BUILD_IMG&#45;&gt;TEST_IMG</title>
<path fill="none" stroke="black" d="M729.75,-536.84C729.15,-524.63 728.42,-509.79 727.76,-496.47"/>
<polygon fill="black" stroke="black" points="731.24,-496.01 727.25,-486.19 724.25,-496.35 731.24,-496.01"/>
</g>
<!-- BUILD_IMG&#45;&gt;INSTALL_ENV_IMG -->
<g id="edge5" class="edge">
<title>BUILD_IMG&#45;&gt;INSTALL_ENV_IMG</title>
<path fill="none" stroke="black" stroke-dasharray="5,2" d="M781.19,-536.97C809.13,-522.96 844.09,-505.44 873.41,-490.74"/>
<polygon fill="black" stroke="black" points="875.34,-493.69 882.72,-486.08 872.21,-487.43 875.34,-493.69"/>
<text text-anchor="middle" x="876" y="-507.8" font-family="Times,serif" font-size="14.00">copy install</text>
</g>
<!-- BUILD_TAR -->
<g id="node16" class="node">
<title>BUILD_TAR</title>
<polygon fill="royalblue" stroke="black" points="241,-52 141,-52 141,-16 247,-16 247,-46 241,-52"/>
<polyline fill="none" stroke="black" points="241,-52 241,-46 "/>
<polyline fill="none" stroke="black" points="247,-46 241,-46 "/>
<text text-anchor="middle" x="194" y="-30.3" font-family="Times,serif" font-size="14.00">docker_build.tar</text>
</g>
<!-- BUILD_IMG&#45;&gt;BUILD_TAR -->
<g id="edge16" class="edge">
<title>BUILD_IMG&#45;&gt;BUILD_TAR</title>
<path fill="none" stroke="red" d="M642.33,-554.39C489.8,-539.88 194,-505.94 194,-460.88 194,-460.88 194,-460.88 194,-149.12 194,-119.36 194,-85.24 194,-62.11"/>
<polygon fill="red" stroke="red" points="197.5,-62.01 194,-52.01 190.5,-62.02 197.5,-62.01"/>
<text text-anchor="middle" x="267.5" y="-301.3" font-family="Times,serif" font-size="14.00">make save_&lt;distro&gt;_build</text>
</g>
<!-- TEST_TAR -->
<g id="node17" class="node">
<title>TEST_TAR</title>
<polygon fill="royalblue" stroke="black" points="356.5,-52 265.5,-52 265.5,-16 362.5,-16 362.5,-46 356.5,-52"/>
<polyline fill="none" stroke="black" points="356.5,-52 356.5,-46 "/>
<polyline fill="none" stroke="black" points="362.5,-46 356.5,-46 "/>
<text text-anchor="middle" x="314" y="-30.3" font-family="Times,serif" font-size="14.00">docker_test.tar</text>
</g>
<!-- TEST_IMG&#45;&gt;TEST_TAR -->
<g id="edge17" class="edge">
<title>TEST_IMG&#45;&gt;TEST_TAR</title>
<path fill="none" stroke="red" d="M641.93,-454.59C596.44,-449.52 540.43,-438.7 495,-415.75 415.78,-375.73 390.07,-358.18 349,-279.5 311.63,-207.91 310.3,-109.33 312.21,-62.21"/>
<polygon fill="red" stroke="red" points="315.71,-62.34 312.7,-52.18 308.72,-61.99 315.71,-62.34"/>
<text text-anchor="middle" x="418" y="-249.68" font-family="Times,serif" font-size="14.00">make save_&lt;distro&gt;_test</text>
</g>
<!-- INSTALL_ENV_IMG&#45;&gt;INSTALL_DEVEL_IMG -->
<g id="edge6" class="edge">
<title>INSTALL_ENV_IMG&#45;&gt;INSTALL_DEVEL_IMG</title>
<path fill="none" stroke="black" d="M932,-433.59C931.52,-421.38 930.93,-406.54 930.41,-393.22"/>
<polygon fill="black" stroke="black" points="933.89,-392.8 930,-382.94 926.9,-393.07 933.89,-392.8"/>
</g>
<!-- INSTALL_ENV_TAR -->
<g id="node18" class="node">
<title>INSTALL_ENV_TAR</title>
<polygon fill="royalblue" stroke="black" points="511.5,-52 380.5,-52 380.5,-16 517.5,-16 517.5,-46 511.5,-52"/>
<polyline fill="none" stroke="black" points="511.5,-52 511.5,-46 "/>
<polyline fill="none" stroke="black" points="517.5,-46 511.5,-46 "/>
<text text-anchor="middle" x="449" y="-30.3" font-family="Times,serif" font-size="14.00">docker_install_env.tar</text>
</g>
<!-- INSTALL_ENV_IMG&#45;&gt;INSTALL_ENV_TAR -->
<g id="edge18" class="edge">
<title>INSTALL_ENV_IMG&#45;&gt;INSTALL_ENV_TAR</title>
<path fill="none" stroke="red" d="M830.36,-435.63C704.88,-407.04 509,-361.74 509,-357.62 509,-357.62 509,-357.62 509,-149.12 509,-115.38 488.2,-81.81 471.09,-59.9"/>
<polygon fill="red" stroke="red" points="473.78,-57.66 464.76,-52.1 468.34,-62.07 473.78,-57.66"/>
<text text-anchor="middle" x="598" y="-249.68" font-family="Times,serif" font-size="14.00">make save_&lt;distro&gt;_install_env</text>
</g>
<!-- INSTALL_BUILD_IMG -->
<g id="node12" class="node">
<title>INSTALL_BUILD_IMG</title>
<path fill="royalblue" stroke="black" d="M1037.5,-274.85C1037.5,-277.49 988.87,-279.63 929,-279.63 869.13,-279.63 820.5,-277.49 820.5,-274.85 820.5,-274.85 820.5,-231.9 820.5,-231.9 820.5,-229.26 869.13,-227.12 929,-227.12 988.87,-227.12 1037.5,-229.26 1037.5,-231.9 1037.5,-231.9 1037.5,-274.85 1037.5,-274.85"/>
<path fill="none" stroke="black" d="M1037.5,-274.85C1037.5,-272.22 988.87,-270.08 929,-270.08 869.13,-270.08 820.5,-272.22 820.5,-274.85"/>
<text text-anchor="middle" x="929" y="-257.18" font-family="Times,serif" font-size="14.00">python&#45;native:&lt;distro&gt;_install_build</text>
<text text-anchor="middle" x="929" y="-242.18" font-family="Times,serif" font-size="14.00">install_build</text>
</g>
<!-- INSTALL_DEVEL_IMG&#45;&gt;INSTALL_BUILD_IMG -->
<g id="edge7" class="edge">
<title>INSTALL_DEVEL_IMG&#45;&gt;INSTALL_BUILD_IMG</title>
<path fill="none" stroke="black" d="M929,-330.34C929,-318.13 929,-303.29 929,-289.97"/>
<polygon fill="black" stroke="black" points="932.5,-289.69 929,-279.69 925.5,-289.69 932.5,-289.69"/>
</g>
<!-- INSTALL_DEVEL_TAR -->
<g id="node19" class="node">
<title>INSTALL_DEVEL_TAR</title>
<polygon fill="royalblue" stroke="black" points="676.5,-52 535.5,-52 535.5,-16 682.5,-16 682.5,-46 676.5,-52"/>
<polyline fill="none" stroke="black" points="676.5,-52 676.5,-46 "/>
<polyline fill="none" stroke="black" points="682.5,-46 676.5,-46 "/>
<text text-anchor="middle" x="609" y="-30.3" font-family="Times,serif" font-size="14.00">docker_install_devel.tar</text>
</g>
<!-- INSTALL_DEVEL_IMG&#45;&gt;INSTALL_DEVEL_TAR -->
<g id="edge19" class="edge">
<title>INSTALL_DEVEL_IMG&#45;&gt;INSTALL_DEVEL_TAR</title>
<path fill="none" stroke="red" d="M891.67,-330.26C846.3,-300.7 766.41,-252.66 691,-227.25 666.49,-218.99 592.82,-228.9 576,-209.25 540.02,-167.2 570.84,-98.28 592.39,-60.97"/>
<polygon fill="red" stroke="red" points="595.51,-62.58 597.62,-52.2 589.49,-58.99 595.51,-62.58"/>
<text text-anchor="middle" x="670" y="-198.05" font-family="Times,serif" font-size="14.00">make save_&lt;distro&gt;_install_devel</text>
</g>
<!-- INSTALL_TEST_IMG -->
<g id="node13" class="node">
<title>INSTALL_TEST_IMG</title>
<path fill="royalblue" stroke="black" d="M1038,-171.6C1038,-174.24 991.39,-176.38 934,-176.38 876.61,-176.38 830,-174.24 830,-171.6 830,-171.6 830,-128.65 830,-128.65 830,-126.01 876.61,-123.87 934,-123.87 991.39,-123.87 1038,-126.01 1038,-128.65 1038,-128.65 1038,-171.6 1038,-171.6"/>
<path fill="none" stroke="black" d="M1038,-171.6C1038,-168.97 991.39,-166.83 934,-166.83 876.61,-166.83 830,-168.97 830,-171.6"/>
<text text-anchor="middle" x="934" y="-153.93" font-family="Times,serif" font-size="14.00">python&#45;native:&lt;distro&gt;_install_test</text>
<text text-anchor="middle" x="934" y="-138.93" font-family="Times,serif" font-size="14.00">install_test</text>
</g>
<!-- INSTALL_BUILD_IMG&#45;&gt;INSTALL_TEST_IMG -->
<g id="edge8" class="edge">
<title>INSTALL_BUILD_IMG&#45;&gt;INSTALL_TEST_IMG</title>
<path fill="none" stroke="black" d="M930.25,-227.09C930.85,-214.88 931.58,-200.04 932.24,-186.72"/>
<polygon fill="black" stroke="black" points="935.75,-186.6 932.75,-176.44 928.76,-186.26 935.75,-186.6"/>
</g>
<!-- INSTALL_BUILD_TAR -->
<g id="node20" class="node">
<title>INSTALL_BUILD_TAR</title>
<polygon fill="royalblue" stroke="black" points="841,-52 701,-52 701,-16 847,-16 847,-46 841,-52"/>
<polyline fill="none" stroke="black" points="841,-52 841,-46 "/>
<polyline fill="none" stroke="black" points="847,-46 841,-46 "/>
<text text-anchor="middle" x="774" y="-30.3" font-family="Times,serif" font-size="14.00">docker_install_build.tar</text>
</g>
<!-- INSTALL_BUILD_IMG&#45;&gt;INSTALL_BUILD_TAR -->
<g id="edge20" class="edge">
<title>INSTALL_BUILD_IMG&#45;&gt;INSTALL_BUILD_TAR</title>
<path fill="none" stroke="red" d="M868.78,-227.18C838.93,-215.59 802.06,-202.59 768,-194.25 738.82,-187.11 653.78,-198.87 634,-176.25 616.37,-156.09 620.54,-139.15 634,-116 648.91,-90.36 666.31,-97.82 692,-83 706.42,-74.68 722.21,-65.46 736.05,-57.35"/>
<polygon fill="red" stroke="red" points="737.98,-60.27 744.83,-52.19 734.43,-54.24 737.98,-60.27"/>
<text text-anchor="middle" x="727.5" y="-146.43" font-family="Times,serif" font-size="14.00">make save_&lt;distro&gt;_install_build</text>
</g>
<!-- INSTALL_TEST_TAR -->
<g id="node21" class="node">
<title>INSTALL_TEST_TAR</title>
<polygon fill="royalblue" stroke="black" points="996.5,-52 865.5,-52 865.5,-16 1002.5,-16 1002.5,-46 996.5,-52"/>
<polyline fill="none" stroke="black" points="996.5,-52 996.5,-46 "/>
<polyline fill="none" stroke="black" points="1002.5,-46 996.5,-46 "/>
<text text-anchor="middle" x="934" y="-30.3" font-family="Times,serif" font-size="14.00">docker_install_test.tar</text>
</g>
<!-- INSTALL_TEST_IMG&#45;&gt;INSTALL_TEST_TAR -->
<g id="edge21" class="edge">
<title>INSTALL_TEST_IMG&#45;&gt;INSTALL_TEST_TAR</title>
<path fill="none" stroke="red" d="M934,-123.8C934,-105.57 934,-81.01 934,-62.34"/>
<polygon fill="red" stroke="red" points="937.5,-62.12 934,-52.12 930.5,-62.12 937.5,-62.12"/>
<text text-anchor="middle" x="1023" y="-94.8" font-family="Times,serif" font-size="14.00">make save_&lt;distro&gt;_install_test</text>
</g>
</g>
</svg>
