<?xml version="1.0" encoding="UTF-8" standalone="no"?>
<!DOCTYPE svg PUBLIC "-//W3C//DTD SVG 1.1//EN"
 "http://www.w3.org/Graphics/SVG/1.1/DTD/svg11.dtd">
<!-- Generated by graphviz version 2.43.0 (0)
 -->
<!-- Title: Legend Pages: 1 -->
<svg width="913pt" height="477pt"
 viewBox="0.00 0.00 913.00 477.00" xmlns="http://www.w3.org/2000/svg" xmlns:xlink="http://www.w3.org/1999/xlink">
<g id="graph0" class="graph" transform="scale(1 1) rotate(0) translate(4 473)">
<title>Legend</title>
<polygon fill="white" stroke="transparent" points="-4,4 -4,-473 909,-473 909,4 -4,4"/>
<g id="clust1" class="cluster">
<title>clusterLegend</title>
<polygon fill="white" stroke="black" points="8,-8 8,-461 897,-461 897,-8 8,-8"/>
<text text-anchor="middle" x="452.5" y="-445.8" font-family="Times,serif" font-size="14.00">Legend</text>
</g>
<!-- CPP -->
<g id="node1" class="node">
<title>CPP</title>
<polygon fill="royalblue" stroke="black" points="165,-430 110,-430 110,-394 171,-394 171,-424 165,-430"/>
<polyline fill="none" stroke="black" points="165,-430 165,-424 "/>
<polyline fill="none" stroke="black" points="171,-424 165,-424 "/>
<text text-anchor="middle" x="140.5" y="-408.3" font-family="Times,serif" font-size="14.00">Foo.cpp</text>
</g>
<!-- CPP_LGD -->
<g id="node2" class="node">
<title>CPP_LGD</title>
<polygon fill="white" stroke="transparent" points="503,-430 393,-430 393,-394 503,-394 503,-430"/>
<text text-anchor="middle" x="448" y="-408.3" font-family="Times,serif" font-size="14.00">: C++ source file</text>
</g>
<!-- CPP&#45;&gt;CPP_LGD -->
<g id="edge1" class="edge">
<title>CPP&#45;&gt;CPP_LGD</title>
</g>
<!-- LIB -->
<g id="node3" class="node">
<title>LIB</title>
<polygon fill="royalblue" stroke="black" points="167.5,-376 113.5,-376 113.5,-372 109.5,-372 109.5,-368 113.5,-368 113.5,-348 109.5,-348 109.5,-344 113.5,-344 113.5,-340 167.5,-340 167.5,-376"/>
<polyline fill="none" stroke="black" points="113.5,-372 117.5,-372 117.5,-368 113.5,-368 "/>
<polyline fill="none" stroke="black" points="113.5,-348 117.5,-348 117.5,-344 113.5,-344 "/>
<text text-anchor="middle" x="140.5" y="-354.3" font-family="Times,serif" font-size="14.00">Foo.so</text>
</g>
<!-- LIB_LGD -->
<g id="node4" class="node">
<title>LIB_LGD</title>
<polygon fill="white" stroke="transparent" points="533,-376 363,-376 363,-340 533,-340 533,-376"/>
<text text-anchor="middle" x="448" y="-354.3" font-family="Times,serif" font-size="14.00">: Shared library (i.e. binary)</text>
</g>
<!-- LIB&#45;&gt;LIB_LGD -->
<g id="edge2" class="edge">
<title>LIB&#45;&gt;LIB_LGD</title>
</g>
<!-- PYTHON -->
<g id="node5" class="node">
<title>PYTHON</title>
<polygon fill="gold" stroke="black" points="180.5,-322 94.5,-322 94.5,-286 186.5,-286 186.5,-316 180.5,-322"/>
<polyline fill="none" stroke="black" points="180.5,-322 180.5,-316 "/>
<polyline fill="none" stroke="black" points="186.5,-316 180.5,-316 "/>
<text text-anchor="middle" x="140.5" y="-300.3" font-family="Times,serif" font-size="14.00">pywrapfoo.py</text>
</g>
<!-- PYTHON_LGD -->
<g id="node6" class="node">
<title>PYTHON_LGD</title>
<polygon fill="white" stroke="transparent" points="509.5,-322 386.5,-322 386.5,-286 509.5,-286 509.5,-322"/>
<text text-anchor="middle" x="448" y="-300.3" font-family="Times,serif" font-size="14.00">: Python source file</text>
</g>
<!-- PYTHON&#45;&gt;PYTHON_LGD -->
<g id="edge3" class="edge">
<title>PYTHON&#45;&gt;PYTHON_LGD</title>
</g>
<!-- PYWRP -->
<g id="node7" class="node">
<title>PYWRP</title>
<polygon fill="gold" stroke="black" points="189.5,-268 91.5,-268 91.5,-264 87.5,-264 87.5,-260 91.5,-260 91.5,-240 87.5,-240 87.5,-236 91.5,-236 91.5,-232 189.5,-232 189.5,-268"/>
<polyline fill="none" stroke="black" points="91.5,-264 95.5,-264 95.5,-260 91.5,-260 "/>
<polyline fill="none" stroke="black" points="91.5,-240 95.5,-240 95.5,-236 91.5,-236 "/>
<text text-anchor="middle" x="140.5" y="-246.3" font-family="Times,serif" font-size="14.00">_pywrapfoo.so</text>
</g>
<!-- PYWRP_LGD -->
<g id="node8" class="node">
<title>PYWRP_LGD</title>
<polygon fill="white" stroke="transparent" points="550,-268 346,-268 346,-232 550,-232 550,-268"/>
<text text-anchor="middle" x="448" y="-246.3" font-family="Times,serif" font-size="14.00">: C++ wrapper output (i.e. binary)</text>
</g>
<!-- PYWRP&#45;&gt;PYWRP_LGD -->
<g id="edge4" class="edge">
<title>PYWRP&#45;&gt;PYWRP_LGD</title>
</g>
<!-- WHL -->
<g id="node9" class="node">
<title>WHL</title>
<polygon fill="gold" stroke="black" points="265,-214 262,-218 241,-218 238,-214 16,-214 16,-178 265,-178 265,-214"/>
<text text-anchor="middle" x="140.5" y="-192.3" font-family="Times,serif" font-size="14.00">foo&#45;&lt;version&gt;&#45;cp3*&#45;cp3*&#45;&lt;platform&gt;.whl</text>
</g>
<!-- WHL_LGD -->
<g id="node10" class="node">
<title>WHL_LGD</title>
<polygon fill="white" stroke="transparent" points="569,-214 327,-214 327,-178 569,-178 569,-214"/>
<text text-anchor="middle" x="448" y="-192.3" font-family="Times,serif" font-size="14.00">: Python package file (i.e. wheel archive)</text>
</g>
<!-- WHL&#45;&gt;WHL_LGD -->
<g id="edge5" class="edge">
<title>WHL&#45;&gt;WHL_LGD</title>
</g>
<!-- A -->
<g id="node11" class="node">
<title>A</title>
<polygon fill="white" stroke="black" points="161.5,-160 113.5,-160 113.5,-124 167.5,-124 167.5,-154 161.5,-160"/>
<polyline fill="none" stroke="black" points="161.5,-160 161.5,-154 "/>
<polyline fill="none" stroke="black" points="167.5,-154 161.5,-154 "/>
<text text-anchor="middle" x="140.5" y="-138.3" font-family="Times,serif" font-size="14.00">A</text>
</g>
<!-- B -->
<g id="node12" class="node">
<title>B</title>
<polygon fill="white" stroke="black" points="469,-160 421,-160 421,-124 475,-124 475,-154 469,-160"/>
<polyline fill="none" stroke="black" points="469,-160 469,-154 "/>
<polyline fill="none" stroke="black" points="475,-154 469,-154 "/>
<text text-anchor="middle" x="448" y="-138.3" font-family="Times,serif" font-size="14.00">B</text>
</g>
<!-- A&#45;&gt;B -->
<g id="edge6" class="edge">
<title>A&#45;&gt;B</title>
<path fill="none" stroke="black" stroke-width="2" d="M167.55,-142C221.97,-142 347.87,-142 410.4,-142"/>
<polygon fill="black" stroke="black" stroke-width="2" points="410.59,-145.5 420.59,-142 410.59,-138.5 410.59,-145.5"/>
<text text-anchor="middle" x="296" y="-145.8" font-family="Times,serif" font-size="14.00">cmd</text>
</g>
<!-- CMD_LGD -->
<g id="node13" class="node">
<title>CMD_LGD</title>
<polygon fill="white" stroke="transparent" points="870,-162 625,-162 625,-126 870,-126 870,-162"/>
<text text-anchor="middle" x="747.5" y="-140.3" font-family="Times,serif" font-size="14.00">: &#39;cmd [...] A&#39; will generate file B from A.</text>
</g>
<!-- B&#45;&gt;CMD_LGD -->
<g id="edge7" class="edge">
<title>B&#45;&gt;CMD_LGD</title>
</g>
<!-- C -->
<g id="node14" class="node">
<title>C</title>
<polygon fill="white" stroke="black" points="161.5,-106 113.5,-106 113.5,-70 167.5,-70 167.5,-100 161.5,-106"/>
<polyline fill="none" stroke="black" points="161.5,-106 161.5,-100 "/>
<polyline fill="none" stroke="black" points="167.5,-100 161.5,-100 "/>
<text text-anchor="middle" x="140.5" y="-84.3" font-family="Times,serif" font-size="14.00">A</text>
</g>
<!-- D -->
<g id="node15" class="node">
<title>D</title>
<polygon fill="white" stroke="black" points="469,-106 421,-106 421,-70 475,-70 475,-100 469,-106"/>
<polyline fill="none" stroke="black" points="469,-106 469,-100 "/>
<polyline fill="none" stroke="black" points="475,-100 469,-100 "/>
<text text-anchor="middle" x="448" y="-84.3" font-family="Times,serif" font-size="14.00">B</text>
</g>
<!-- C&#45;&gt;D -->
<g id="edge8" class="edge">
<title>C&#45;&gt;D</title>
<path fill="none" stroke="black" stroke-dasharray="5,2" d="M167.55,-88C221.97,-88 347.87,-88 410.4,-88"/>
<polygon fill="black" stroke="black" points="410.59,-91.5 420.59,-88 410.59,-84.5 410.59,-91.5"/>
<text text-anchor="middle" x="296" y="-91.8" font-family="Times,serif" font-size="14.00">ref</text>
</g>
<!-- REF_LGD -->
<g id="node16" class="node">
<title>REF_LGD</title>
<polygon fill="white" stroke="transparent" points="870.5,-108 624.5,-108 624.5,-70 870.5,-70 870.5,-108"/>
<text text-anchor="middle" x="747.5" y="-92.8" font-family="Times,serif" font-size="14.00">: B references file A (i.e. B depends on A)</text>
<text text-anchor="middle" x="747.5" y="-77.8" font-family="Times,serif" font-size="14.00">&#39;ref&#39; may refer to the keyword use in B.</text>
</g>
<!-- D&#45;&gt;REF_LGD -->
<g id="edge9" class="edge">
<title>D&#45;&gt;REF_LGD</title>
</g>
<!-- E -->
<g id="node17" class="node">
<title>E</title>
<polygon fill="white" stroke="black" points="161.5,-52 113.5,-52 113.5,-16 167.5,-16 167.5,-46 161.5,-52"/>
<polyline fill="none" stroke="black" points="161.5,-52 161.5,-46 "/>
<polyline fill="none" stroke="black" points="167.5,-46 161.5,-46 "/>
<text text-anchor="middle" x="140.5" y="-30.3" font-family="Times,serif" font-size="14.00">E</text>
</g>
<!-- F -->
<g id="node18" class="node">
<title>F</title>
<polygon fill="white" stroke="black" points="475,-52 472,-56 451,-56 448,-52 421,-52 421,-16 475,-16 475,-52"/>
<text text-anchor="middle" x="448" y="-30.3" font-family="Times,serif" font-size="14.00">F</text>
</g>
<!-- E&#45;&gt;F -->
<g id="edge10" class="edge">
<title>E&#45;&gt;F</title>
<path fill="none" stroke="black" stroke-dasharray="5,2" d="M167.55,-34C221.97,-34 347.87,-34 410.4,-34"/>
<polygon fill="black" stroke="black" points="410.59,-37.5 420.59,-34 410.59,-30.5 410.59,-37.5"/>
<text text-anchor="middle" x="296" y="-37.8" font-family="Times,serif" font-size="14.00">pack</text>
</g>
<!-- FOLDER_LGD -->
<g id="node19" class="node">
<title>FOLDER_LGD</title>
<polygon fill="white" stroke="transparent" points="889,-52 606,-52 606,-16 889,-16 889,-52"/>
<text text-anchor="middle" x="747.5" y="-30.3" font-family="Times,serif" font-size="14.00">: Archive F contains file E (i.e. F depends on E).</text>
</g>
<!-- F&#45;&gt;FOLDER_LGD -->
<g id="edge11" class="edge">
<title>F&#45;&gt;FOLDER_LGD</title>
</g>
</g>
</svg>
