<?xml version="1.0" encoding="UTF-8" standalone="no"?>
<!DOCTYPE svg PUBLIC "-//W3C//DTD SVG 1.1//EN"
 "http://www.w3.org/Graphics/SVG/1.1/DTD/svg11.dtd">
<!-- Generated by graphviz version 2.49.3 (0)
 -->
<!-- Title: Legend Pages: 1 -->
<svg width="1195pt" height="477pt"
 viewBox="0.00 0.00 1195.00 477.00" xmlns="http://www.w3.org/2000/svg" xmlns:xlink="http://www.w3.org/1999/xlink">
<g id="graph0" class="graph" transform="scale(1 1) rotate(0) translate(4 473)">
<title>Legend</title>
<polygon fill="white" stroke="transparent" points="-4,4 -4,-473 1191,-473 1191,4 -4,4"/>
<g id="clust1" class="cluster">
<title>clusterLegend</title>
<polygon fill="white" stroke="black" points="8,-8 8,-461 1179,-461 1179,-8 8,-8"/>
<text text-anchor="middle" x="593.5" y="-445.8" font-family="Times,serif" font-size="14.00">Legend</text>
</g>
<!-- CPP -->
<g id="node1" class="node">
<title>CPP</title>
<polygon fill="royalblue" stroke="black" points="238.5,-430 172.5,-430 172.5,-394 244.5,-394 244.5,-424 238.5,-430"/>
<polyline fill="none" stroke="black" points="238.5,-430 238.5,-424 "/>
<polyline fill="none" stroke="black" points="244.5,-424 238.5,-424 "/>
<text text-anchor="middle" x="208.5" y="-408.3" font-family="Times,serif" font-size="14.00">Foo.cpp</text>
</g>
<!-- CPP_LGD -->
<g id="node2" class="node">
<title>CPP_LGD</title>
<polygon fill="white" stroke="transparent" points="693.5,-430 554.5,-430 554.5,-394 693.5,-394 693.5,-430"/>
<text text-anchor="middle" x="624" y="-408.3" font-family="Times,serif" font-size="14.00">: C++ source file</text>
</g>
<!-- CPP&#45;&gt;CPP_LGD -->
<g id="edge1" class="edge">
<title>CPP&#45;&gt;CPP_LGD</title>
</g>
<!-- LIB -->
<g id="node3" class="node">
<title>LIB</title>
<polygon fill="royalblue" stroke="black" points="239.5,-376 177.5,-376 177.5,-372 173.5,-372 173.5,-368 177.5,-368 177.5,-348 173.5,-348 173.5,-344 177.5,-344 177.5,-340 239.5,-340 239.5,-376"/>
<polyline fill="none" stroke="black" points="177.5,-372 181.5,-372 181.5,-368 177.5,-368 "/>
<polyline fill="none" stroke="black" points="177.5,-348 181.5,-348 181.5,-344 177.5,-344 "/>
<text text-anchor="middle" x="208.5" y="-354.3" font-family="Times,serif" font-size="14.00">Foo.so</text>
</g>
<!-- LIB_LGD -->
<g id="node4" class="node">
<title>LIB_LGD</title>
<polygon fill="white" stroke="transparent" points="732,-376 516,-376 516,-340 732,-340 732,-376"/>
<text text-anchor="middle" x="624" y="-354.3" font-family="Times,serif" font-size="14.00">: Shared library (i.e. binary)</text>
</g>
<!-- LIB&#45;&gt;LIB_LGD -->
<g id="edge2" class="edge">
<title>LIB&#45;&gt;LIB_LGD</title>
</g>
<!-- PYTHON -->
<g id="node5" class="node">
<title>PYTHON</title>
<polygon fill="gold" stroke="black" points="241,-322 170,-322 170,-286 247,-286 247,-316 241,-322"/>
<polyline fill="none" stroke="black" points="241,-322 241,-316 "/>
<polyline fill="none" stroke="black" points="247,-316 241,-316 "/>
<text text-anchor="middle" x="208.5" y="-300.3" font-family="Times,serif" font-size="14.00">pyfoo.py</text>
</g>
<!-- PYTHON_LGD -->
<g id="node6" class="node">
<title>PYTHON_LGD</title>
<polygon fill="white" stroke="transparent" points="701.5,-322 546.5,-322 546.5,-286 701.5,-286 701.5,-322"/>
<text text-anchor="middle" x="624" y="-300.3" font-family="Times,serif" font-size="14.00">: Python source file</text>
</g>
<!-- PYTHON&#45;&gt;PYTHON_LGD -->
<g id="edge3" class="edge">
<title>PYTHON&#45;&gt;PYTHON_LGD</title>
</g>
<!-- PYWRP -->
<g id="node7" class="node">
<title>PYWRP</title>
<polygon fill="gold" stroke="black" points="250,-268 167,-268 167,-264 163,-264 163,-260 167,-260 167,-240 163,-240 163,-236 167,-236 167,-232 250,-232 250,-268"/>
<polyline fill="none" stroke="black" points="167,-264 171,-264 171,-260 167,-260 "/>
<polyline fill="none" stroke="black" points="167,-240 171,-240 171,-236 167,-236 "/>
<text text-anchor="middle" x="208.5" y="-246.3" font-family="Times,serif" font-size="14.00">_pyfoo.so</text>
</g>
<!-- PYWRP_LGD -->
<g id="node8" class="node">
<title>PYWRP_LGD</title>
<polygon fill="white" stroke="transparent" points="755.5,-268 492.5,-268 492.5,-232 755.5,-232 755.5,-268"/>
<text text-anchor="middle" x="624" y="-246.3" font-family="Times,serif" font-size="14.00">: C++ wrapper output (i.e. binary)</text>
</g>
<!-- PYWRP&#45;&gt;PYWRP_LGD -->
<g id="edge4" class="edge">
<title>PYWRP&#45;&gt;PYWRP_LGD</title>
</g>
<!-- WHL -->
<g id="node9" class="node">
<title>WHL</title>
<polygon fill="gold" stroke="black" points="401,-214 398,-218 377,-218 374,-214 16,-214 16,-178 401,-178 401,-214"/>
<text text-anchor="middle" x="208.5" y="-192.3" font-family="Times,serif" font-size="14.00">pythonnative&#45;&lt;version&gt;&#45;cp3*&#45;cp3*&#45;&lt;platform&gt;.whl</text>
</g>
<!-- WHL_LGD -->
<g id="node10" class="node">
<title>WHL_LGD</title>
<polygon fill="white" stroke="transparent" points="777,-214 471,-214 471,-178 777,-178 777,-214"/>
<text text-anchor="middle" x="624" y="-192.3" font-family="Times,serif" font-size="14.00">: Python package file (i.e. wheel archive)</text>
</g>
<!-- WHL&#45;&gt;WHL_LGD -->
<g id="edge5" class="edge">
<title>WHL&#45;&gt;WHL_LGD</title>
</g>
<!-- A -->
<g id="node11" class="node">
<title>A</title>
<polygon fill="white" stroke="black" points="229.5,-160 181.5,-160 181.5,-124 235.5,-124 235.5,-154 229.5,-160"/>
<polyline fill="none" stroke="black" points="229.5,-160 229.5,-154 "/>
<polyline fill="none" stroke="black" points="235.5,-154 229.5,-154 "/>
<text text-anchor="middle" x="208.5" y="-138.3" font-family="Times,serif" font-size="14.00">A</text>
</g>
<!-- B -->
<g id="node12" class="node">
<title>B</title>
<polygon fill="white" stroke="black" points="645,-160 597,-160 597,-124 651,-124 651,-154 645,-160"/>
<polyline fill="none" stroke="black" points="645,-160 645,-154 "/>
<polyline fill="none" stroke="black" points="651,-154 645,-154 "/>
<text text-anchor="middle" x="624" y="-138.3" font-family="Times,serif" font-size="14.00">B</text>
</g>
<!-- A&#45;&gt;B -->
<g id="edge6" class="edge">
<title>A&#45;&gt;B</title>
<path fill="none" stroke="black" stroke-width="2" d="M235.68,-142C307.03,-142 505,-142 586.86,-142"/>
<polygon fill="black" stroke="black" stroke-width="2" points="586.93,-145.5 596.93,-142 586.93,-138.5 586.93,-145.5"/>
<text text-anchor="middle" x="436" y="-145.8" font-family="Times,serif" font-size="14.00">cmd</text>
</g>
<!-- CMD_LGD -->
<g id="node13" class="node">
<title>CMD_LGD</title>
<polygon fill="white" stroke="transparent" points="1144,-162 841,-162 841,-126 1144,-126 1144,-162"/>
<text text-anchor="middle" x="992.5" y="-140.3" font-family="Times,serif" font-size="14.00">: &#39;cmd [...] A&#39; will generate file B from A.</text>
</g>
<!-- B&#45;&gt;CMD_LGD -->
<g id="edge7" class="edge">
<title>B&#45;&gt;CMD_LGD</title>
</g>
<!-- C -->
<g id="node14" class="node">
<title>C</title>
<polygon fill="white" stroke="black" points="229.5,-106 181.5,-106 181.5,-70 235.5,-70 235.5,-100 229.5,-106"/>
<polyline fill="none" stroke="black" points="229.5,-106 229.5,-100 "/>
<polyline fill="none" stroke="black" points="235.5,-100 229.5,-100 "/>
<text text-anchor="middle" x="208.5" y="-84.3" font-family="Times,serif" font-size="14.00">A</text>
</g>
<!-- D -->
<g id="node15" class="node">
<title>D</title>
<polygon fill="white" stroke="black" points="645,-106 597,-106 597,-70 651,-70 651,-100 645,-106"/>
<polyline fill="none" stroke="black" points="645,-106 645,-100 "/>
<polyline fill="none" stroke="black" points="651,-100 645,-100 "/>
<text text-anchor="middle" x="624" y="-84.3" font-family="Times,serif" font-size="14.00">B</text>
</g>
<!-- C&#45;&gt;D -->
<g id="edge8" class="edge">
<title>C&#45;&gt;D</title>
<path fill="none" stroke="black" stroke-dasharray="5,2" d="M235.68,-88C307.03,-88 505,-88 586.86,-88"/>
<polygon fill="black" stroke="black" points="586.93,-91.5 596.93,-88 586.93,-84.5 586.93,-91.5"/>
<text text-anchor="middle" x="436" y="-91.8" font-family="Times,serif" font-size="14.00">ref</text>
</g>
<!-- REF_LGD -->
<g id="node16" class="node">
<title>REF_LGD</title>
<polygon fill="white" stroke="transparent" points="1147.5,-108 837.5,-108 837.5,-70 1147.5,-70 1147.5,-108"/>
<text text-anchor="middle" x="992.5" y="-92.8" font-family="Times,serif" font-size="14.00">: B references file A (i.e. B depends on A)</text>
<text text-anchor="middle" x="992.5" y="-77.8" font-family="Times,serif" font-size="14.00">&#39;ref&#39; may refer to the keyword use in B.</text>
</g>
<!-- D&#45;&gt;REF_LGD -->
<g id="edge9" class="edge">
<title>D&#45;&gt;REF_LGD</title>
</g>
<!-- E -->
<g id="node17" class="node">
<title>E</title>
<polygon fill="white" stroke="black" points="229.5,-52 181.5,-52 181.5,-16 235.5,-16 235.5,-46 229.5,-52"/>
<polyline fill="none" stroke="black" points="229.5,-52 229.5,-46 "/>
<polyline fill="none" stroke="black" points="235.5,-46 229.5,-46 "/>
<text text-anchor="middle" x="208.5" y="-30.3" font-family="Times,serif" font-size="14.00">E</text>
</g>
<!-- F -->
<g id="node18" class="node">
<title>F</title>
<polygon fill="white" stroke="black" points="651,-52 648,-56 627,-56 624,-52 597,-52 597,-16 651,-16 651,-52"/>
<text text-anchor="middle" x="624" y="-30.3" font-family="Times,serif" font-size="14.00">F</text>
</g>
<!-- E&#45;&gt;F -->
<g id="edge10" class="edge">
<title>E&#45;&gt;F</title>
<path fill="none" stroke="black" stroke-dasharray="5,2" d="M235.68,-34C307.03,-34 505,-34 586.86,-34"/>
<polygon fill="black" stroke="black" points="586.93,-37.5 596.93,-34 586.93,-30.5 586.93,-37.5"/>
<text text-anchor="middle" x="436" y="-37.8" font-family="Times,serif" font-size="14.00">pack</text>
</g>
<!-- FOLDER_LGD -->
<g id="node19" class="node">
<title>FOLDER_LGD</title>
<polygon fill="white" stroke="transparent" points="1171,-52 814,-52 814,-16 1171,-16 1171,-52"/>
<text text-anchor="middle" x="992.5" y="-30.3" font-family="Times,serif" font-size="14.00">: Archive F contains file E (i.e. F depends on E).</text>
</g>
<!-- F&#45;&gt;FOLDER_LGD -->
<g id="edge11" class="edge">
<title>F&#45;&gt;FOLDER_LGD</title>
</g>
</g>
</svg>
