<?xml version="1.0" encoding="UTF-8" standalone="no"?>
<!DOCTYPE svg PUBLIC "-//W3C//DTD SVG 1.1//EN"
 "http://www.w3.org/Graphics/SVG/1.1/DTD/svg11.dtd">
<!-- Generated by graphviz version 2.43.0 (0)
 -->
<!-- Title: CMake Pages: 1 -->
<svg width="396pt" height="596pt"
 viewBox="0.00 0.00 396.00 596.00" xmlns="http://www.w3.org/2000/svg" xmlns:xlink="http://www.w3.org/1999/xlink">
<g id="graph0" class="graph" transform="scale(1 1) rotate(0) translate(4 592)">
<title>CMake</title>
<polygon fill="white" stroke="transparent" points="-4,4 -4,-592 392,-592 392,4 -4,4"/>
<g id="clust1" class="cluster">
<title>clusterLinux</title>
<polygon fill="none" stroke="black" points="8,-8 8,-580 380,-580 380,-8 8,-8"/>
<text text-anchor="middle" x="194" y="-564.8" font-family="Times,serif" font-size="14.00">Host</text>
</g>
<g id="clust2" class="cluster">
<title>clusterCPP</title>
<polygon fill="none" stroke="royalblue" points="16,-298 16,-549 280,-549 280,-298 16,-298"/>
<text text-anchor="middle" x="148" y="-533.8" font-family="Times,serif" font-size="14.00">C++</text>
</g>
<g id="clust3" class="cluster">
<title>clusterPYTHON</title>
<polygon fill="none" stroke="gold" points="112,-16 112,-265 350,-265 350,-16 112,-16"/>
<text text-anchor="middle" x="231" y="-249.8" font-family="Times,serif" font-size="14.00">Python</text>
</g>
<!-- SWIG -->
<g id="node1" class="node">
<title>SWIG</title>
<polygon fill="white" stroke="black" points="365.5,-429 288.5,-429 288.5,-393 371.5,-393 371.5,-423 365.5,-429"/>
<polyline fill="none" stroke="black" points="365.5,-429 365.5,-423 "/>
<polyline fill="none" stroke="black" points="371.5,-423 365.5,-423 "/>
<text text-anchor="middle" x="330" y="-407.3" font-family="Times,serif" font-size="14.00">python/foo.i</text>
</g>
<!-- WRAPPER_CPP -->
<g id="node5" class="node">
<title>WRAPPER_CPP</title>
<polygon fill="royalblue" stroke="black" points="239,-429 115,-429 115,-393 245,-393 245,-423 239,-429"/>
<polyline fill="none" stroke="black" points="239,-429 239,-423 "/>
<polyline fill="none" stroke="black" points="245,-423 239,-423 "/>
<text text-anchor="middle" x="180" y="-407.3" font-family="Times,serif" font-size="14.00">fooPython_wrap.cxx</text>
</g>
<!-- SWIG&#45;&gt;WRAPPER_CPP -->
<g id="edge6" class="edge">
<title>SWIG&#45;&gt;WRAPPER_CPP</title>
<path fill="none" stroke="black" stroke-width="2" d="M288.18,-411C278.01,-411 266.83,-411 255.62,-411"/>
<polygon fill="black" stroke="black" stroke-width="2" points="255.36,-407.5 245.36,-411 255.36,-414.5 255.36,-407.5"/>
<text text-anchor="middle" x="266.75" y="-417.8" font-family="Times,serif" font-size="14.00">swig</text>
</g>
<!-- PYTHON -->
<g id="node8" class="node">
<title>PYTHON</title>
<polygon fill="gold" stroke="black" points="182,-234 120,-234 120,-198 188,-198 188,-228 182,-234"/>
<polyline fill="none" stroke="black" points="182,-234 182,-228 "/>
<polyline fill="none" stroke="black" points="188,-228 182,-228 "/>
<text text-anchor="middle" x="154" y="-212.3" font-family="Times,serif" font-size="14.00">pyFoo.py</text>
</g>
<!-- SWIG&#45;&gt;PYTHON -->
<g id="edge10" class="edge">
<title>SWIG&#45;&gt;PYTHON</title>
<path fill="none" stroke="black" stroke-width="2" d="M327.34,-392.82C322.71,-368.54 310.97,-324.24 284,-298 254.36,-269.16 231.1,-288.4 197,-265 188.01,-258.83 179.63,-250.39 172.7,-242.32"/>
<polygon fill="black" stroke="black" stroke-width="2" points="175.31,-239.99 166.28,-234.46 169.89,-244.42 175.31,-239.99"/>
<text text-anchor="middle" x="324" y="-320.3" font-family="Times,serif" font-size="14.00">swig</text>
</g>
<!-- PKG -->
<g id="node2" class="node">
<title>PKG</title>
<polygon fill="royalblue" stroke="black" points="271.5,-518 156.5,-518 152.5,-514 152.5,-480 267.5,-480 271.5,-484 271.5,-518"/>
<polyline fill="none" stroke="black" points="267.5,-514 152.5,-514 "/>
<polyline fill="none" stroke="black" points="267.5,-514 267.5,-480 "/>
<polyline fill="none" stroke="black" points="267.5,-514 271.5,-518 "/>
<text text-anchor="middle" x="212" y="-502.8" font-family="Times,serif" font-size="14.00">C++ dev packages</text>
<text text-anchor="middle" x="212" y="-487.8" font-family="Times,serif" font-size="14.00">e.g. cmake, g++</text>
</g>
<!-- CPP -->
<g id="node3" class="node">
<title>CPP</title>
<polygon fill="royalblue" stroke="black" points="128,-517 24,-517 24,-481 134,-481 134,-511 128,-517"/>
<polyline fill="none" stroke="black" points="128,-517 128,-511 "/>
<polyline fill="none" stroke="black" points="134,-511 128,-511 "/>
<text text-anchor="middle" x="79" y="-495.3" font-family="Times,serif" font-size="14.00">Foo.hpp/Foo.cpp</text>
</g>
<!-- CPP&#45;&gt;SWIG -->
<g id="edge5" class="edge">
<title>CPP&#45;&gt;SWIG</title>
<path fill="none" stroke="black" stroke-dasharray="5,2" d="M130.96,-480.98C170.13,-468.04 225.43,-449.55 278.81,-430.81"/>
<polygon fill="black" stroke="black" points="280.13,-434.06 288.4,-427.44 277.8,-427.46 280.13,-434.06"/>
<text text-anchor="middle" x="247" y="-450.8" font-family="Times,serif" font-size="14.00">include</text>
</g>
<!-- LIB -->
<g id="node4" class="node">
<title>LIB</title>
<polygon fill="royalblue" stroke="black" points="97,-429 29,-429 29,-425 25,-425 25,-421 29,-421 29,-401 25,-401 25,-397 29,-397 29,-393 97,-393 97,-429"/>
<polyline fill="none" stroke="black" points="29,-425 33,-425 33,-421 29,-421 "/>
<polyline fill="none" stroke="black" points="29,-401 33,-401 33,-397 29,-397 "/>
<text text-anchor="middle" x="63" y="-407.3" font-family="Times,serif" font-size="14.00">libFoo.so</text>
</g>
<!-- CPP&#45;&gt;LIB -->
<g id="edge2" class="edge">
<title>CPP&#45;&gt;LIB</title>
<path fill="none" stroke="black" stroke-width="2" d="M75.76,-480.6C73.56,-468.75 70.59,-452.82 68.08,-439.29"/>
<polygon fill="black" stroke="black" stroke-width="2" points="71.45,-438.28 66.18,-429.08 64.57,-439.56 71.45,-438.28"/>
<text text-anchor="middle" x="93" y="-450.8" font-family="Times,serif" font-size="14.00">g++, ld</text>
</g>
<!-- CPP&#45;&gt;WRAPPER_CPP -->
<g id="edge1" class="edge">
<title>CPP&#45;&gt;WRAPPER_CPP</title>
<path fill="none" stroke="black" stroke-dasharray="5,2" d="M98.31,-480.7C104.68,-474.86 111.73,-468.24 118,-462 124.47,-455.57 125.17,-453.05 132,-447 136.45,-443.06 141.33,-439.11 146.22,-435.37"/>
<polygon fill="black" stroke="black" points="148.45,-438.08 154.39,-429.3 144.28,-432.46 148.45,-438.08"/>
<text text-anchor="middle" x="152" y="-450.8" font-family="Times,serif" font-size="14.00">include</text>
</g>
<!-- WRAPPER_LIB -->
<g id="node6" class="node">
<title>WRAPPER_LIB</title>
<polygon fill="royalblue" stroke="black" points="191,-342 117,-342 117,-338 113,-338 113,-334 117,-334 117,-314 113,-314 113,-310 117,-310 117,-306 191,-306 191,-342"/>
<polyline fill="none" stroke="black" points="117,-338 121,-338 121,-334 117,-334 "/>
<polyline fill="none" stroke="black" points="117,-314 121,-314 121,-310 117,-310 "/>
<text text-anchor="middle" x="154" y="-320.3" font-family="Times,serif" font-size="14.00">_pyFoo.so</text>
</g>
<!-- LIB&#45;&gt;WRAPPER_LIB -->
<g id="edge4" class="edge">
<title>LIB&#45;&gt;WRAPPER_LIB</title>
<path fill="none" stroke="black" stroke-dasharray="5,2" d="M81.42,-392.8C94.86,-380.24 113.26,-363.05 128.18,-349.12"/>
<polygon fill="black" stroke="black" points="130.69,-351.56 135.61,-342.18 125.92,-346.44 130.69,-351.56"/>
<text text-anchor="middle" x="119.5" y="-363.8" font-family="Times,serif" font-size="14.00">ld</text>
</g>
<!-- SETUP -->
<g id="node9" class="node">
<title>SETUP</title>
<polygon fill="gold" stroke="black" points="176,-147 120,-147 120,-111 182,-111 182,-141 176,-147"/>
<polyline fill="none" stroke="black" points="176,-147 176,-141 "/>
<polyline fill="none" stroke="black" points="182,-141 176,-141 "/>
<text text-anchor="middle" x="151" y="-125.3" font-family="Times,serif" font-size="14.00">setup.py</text>
</g>
<!-- LIB&#45;&gt;SETUP -->
<g id="edge11" class="edge">
<title>LIB&#45;&gt;SETUP</title>
<path fill="none" stroke="black" stroke-dasharray="5,2" d="M64.75,-392.94C68.75,-356.53 79.93,-268.78 101,-198 105.55,-182.73 106,-178.15 115,-165 117.44,-161.44 120.28,-157.95 123.28,-154.63"/>
<polygon fill="black" stroke="black" points="125.98,-156.87 130.44,-147.26 120.96,-151.99 125.98,-156.87"/>
</g>
<!-- WHL -->
<g id="node10" class="node">
<title>WHL</title>
<polygon fill="gold" stroke="black" points="295.5,-60 292.5,-64 271.5,-64 268.5,-60 128.5,-60 128.5,-24 295.5,-24 295.5,-60"/>
<text text-anchor="middle" x="212" y="-38.3" font-family="Times,serif" font-size="14.00">foo&#45;cp39&#45;linux&#45;x86_64.whl</text>
</g>
<!-- LIB&#45;&gt;WHL -->
<g id="edge12" class="edge">
<title>LIB&#45;&gt;WHL</title>
<path fill="none" stroke="black" stroke-dasharray="5,2" d="M53.5,-393C45.05,-376.24 34,-349.64 34,-325 34,-325 34,-325 34,-128 34,-85.58 75.68,-64.31 118.71,-53.65"/>
<polygon fill="black" stroke="black" points="119.51,-57.06 128.47,-51.41 117.94,-50.24 119.51,-57.06"/>
<text text-anchor="middle" x="48" y="-212.3" font-family="Times,serif" font-size="14.00">.libs/</text>
</g>
<!-- WRAPPER_CPP&#45;&gt;WRAPPER_LIB -->
<g id="edge3" class="edge">
<title>WRAPPER_CPP&#45;&gt;WRAPPER_LIB</title>
<path fill="none" stroke="black" stroke-width="2" d="M173.17,-392.67C171.07,-387.07 168.83,-380.81 167,-375 164.67,-367.59 162.42,-359.47 160.48,-351.97"/>
<polygon fill="black" stroke="black" stroke-width="2" points="163.87,-351.09 158.03,-342.25 157.08,-352.8 163.87,-351.09"/>
<text text-anchor="middle" x="188" y="-363.8" font-family="Times,serif" font-size="14.00">g++, ld</text>
</g>
<!-- WRAPPER_LIB&#45;&gt;PYTHON -->
<g id="edge13" class="edge">
<title>WRAPPER_LIB&#45;&gt;PYTHON</title>
<path fill="none" stroke="black" stroke-dasharray="5,2" d="M154,-305.97C154,-289.38 154,-263.88 154,-244.43"/>
<polygon fill="black" stroke="black" points="157.5,-244.34 154,-234.34 150.5,-244.34 157.5,-244.34"/>
<text text-anchor="middle" x="172.5" y="-276.8" font-family="Times,serif" font-size="14.00">dlopen</text>
</g>
<!-- WRAPPER_LIB&#45;&gt;SETUP -->
<g id="edge14" class="edge">
<title>WRAPPER_LIB&#45;&gt;SETUP</title>
<path fill="none" stroke="black" stroke-dasharray="5,2" d="M136.72,-305.92C127.12,-295.19 116.11,-280.47 111,-265 101.66,-236.72 103.18,-226.73 111,-198 115.14,-182.79 123.64,-167.52 131.74,-155.31"/>
<polygon fill="black" stroke="black" points="134.68,-157.22 137.51,-147 128.93,-153.22 134.68,-157.22"/>
</g>
<!-- WRAPPER_LIB&#45;&gt;WHL -->
<g id="edge15" class="edge">
<title>WRAPPER_LIB&#45;&gt;WHL</title>
<path fill="none" stroke="black" stroke-dasharray="5,2" d="M178.89,-306C184.05,-303 189.58,-300.15 195,-298 260.86,-271.84 306.37,-320.05 351,-265 405.47,-197.8 302.23,-107.88 245.59,-66.12"/>
<polygon fill="black" stroke="black" points="247.41,-63.12 237.27,-60.08 243.3,-68.78 247.41,-63.12"/>
<text text-anchor="middle" x="366.5" y="-168.8" font-family="Times,serif" font-size="14.00">Foo/</text>
</g>
<!-- WHL_PKG -->
<g id="node7" class="node">
<title>WHL_PKG</title>
<polygon fill="gold" stroke="black" points="342,-234 210,-234 206,-230 206,-198 338,-198 342,-202 342,-234"/>
<polyline fill="none" stroke="black" points="338,-230 206,-230 "/>
<polyline fill="none" stroke="black" points="338,-230 338,-198 "/>
<polyline fill="none" stroke="black" points="338,-230 342,-234 "/>
<text text-anchor="middle" x="274" y="-212.3" font-family="Times,serif" font-size="14.00">Python wheel module</text>
</g>
<!-- PYTHON&#45;&gt;SETUP -->
<g id="edge7" class="edge">
<title>PYTHON&#45;&gt;SETUP</title>
<path fill="none" stroke="black" stroke-dasharray="5,2" d="M153.39,-197.8C152.98,-186.16 152.43,-170.55 151.96,-157.24"/>
<polygon fill="black" stroke="black" points="155.46,-157.05 151.61,-147.18 148.46,-157.29 155.46,-157.05"/>
</g>
<!-- PYTHON&#45;&gt;WHL -->
<g id="edge8" class="edge">
<title>PYTHON&#45;&gt;WHL</title>
<path fill="none" stroke="black" stroke-dasharray="5,2" d="M166.27,-197.89C181.66,-175.22 207.11,-133.37 216,-93 217.6,-85.72 217.69,-77.71 217.09,-70.28"/>
<polygon fill="black" stroke="black" points="220.56,-69.8 215.87,-60.3 213.61,-70.65 220.56,-69.8"/>
<text text-anchor="middle" x="222.5" y="-125.3" font-family="Times,serif" font-size="14.00">Foo/</text>
</g>
<!-- SETUP&#45;&gt;WHL -->
<g id="edge9" class="edge">
<title>SETUP&#45;&gt;WHL</title>
<path fill="none" stroke="black" stroke-width="2" d="M146.38,-110.67C144.66,-100.49 144.31,-87.75 150,-78 152.52,-73.69 155.78,-69.87 159.5,-66.49"/>
<polygon fill="black" stroke="black" stroke-width="2" points="161.9,-69.05 167.66,-60.16 157.61,-63.52 161.9,-69.05"/>
<text text-anchor="middle" x="183" y="-81.8" font-family="Times,serif" font-size="14.00">bdist_wheel</text>
</g>
</g>
</svg>
