<?xml version="1.0" encoding="UTF-8" standalone="no"?>
<!DOCTYPE svg PUBLIC "-//W3C//DTD SVG 1.1//EN"
 "http://www.w3.org/Graphics/SVG/1.1/DTD/svg11.dtd">
<!-- Generated by graphviz version 2.49.3 (0)
 -->
<!-- Title: CMake Pages: 1 -->
<svg width="470pt" height="596pt"
 viewBox="0.00 0.00 470.00 596.00" xmlns="http://www.w3.org/2000/svg" xmlns:xlink="http://www.w3.org/1999/xlink">
<g id="graph0" class="graph" transform="scale(1 1) rotate(0) translate(4 592)">
<title>CMake</title>
<polygon fill="white" stroke="transparent" points="-4,4 -4,-592 466,-592 466,4 -4,4"/>
<g id="clust1" class="cluster">
<title>clusterLinux</title>
<polygon fill="none" stroke="black" points="8,-8 8,-580 454,-580 454,-8 8,-8"/>
<text text-anchor="middle" x="231" y="-564.8" font-family="Times,serif" font-size="14.00">Host</text>
</g>
<g id="clust2" class="cluster">
<title>clusterCPP</title>
<polygon fill="none" stroke="royalblue" points="16,-298 16,-549 336,-549 336,-298 16,-298"/>
<text text-anchor="middle" x="176" y="-533.8" font-family="Times,serif" font-size="14.00">C++</text>
</g>
<g id="clust3" class="cluster">
<title>clusterPYTHON</title>
<polygon fill="none" stroke="gold" points="119,-16 119,-265 405,-265 405,-16 119,-16"/>
<text text-anchor="middle" x="262" y="-249.8" font-family="Times,serif" font-size="14.00">Python</text>
</g>
<!-- SWIG -->
<g id="node1" class="node">
<title>SWIG</title>
<polygon fill="white" stroke="black" points="439.5,-429 344.5,-429 344.5,-393 445.5,-393 445.5,-423 439.5,-429"/>
<polyline fill="none" stroke="black" points="439.5,-429 439.5,-423 "/>
<polyline fill="none" stroke="black" points="445.5,-423 439.5,-423 "/>
<text text-anchor="middle" x="395" y="-407.3" font-family="Times,serif" font-size="14.00">python/foo.i</text>
</g>
<!-- WRAPPER_CPP -->
<g id="node5" class="node">
<title>WRAPPER_CPP</title>
<polygon fill="royalblue" stroke="black" points="287,-429 133,-429 133,-393 293,-393 293,-423 287,-429"/>
<polyline fill="none" stroke="black" points="287,-429 287,-423 "/>
<polyline fill="none" stroke="black" points="293,-423 287,-423 "/>
<text text-anchor="middle" x="213" y="-407.3" font-family="Times,serif" font-size="14.00">fooPython_wrap.cxx</text>
</g>
<!-- SWIG&#45;&gt;WRAPPER_CPP -->
<g id="edge6" class="edge">
<title>SWIG&#45;&gt;WRAPPER_CPP</title>
<path fill="none" stroke="black" stroke-width="2" d="M344.46,-411C331.65,-411 317.5,-411 303.36,-411"/>
<polygon fill="black" stroke="black" stroke-width="2" points="303.09,-407.5 293.09,-411 303.09,-414.5 303.09,-407.5"/>
<text text-anchor="middle" x="318.75" y="-417.8" font-family="Times,serif" font-size="14.00">swig</text>
</g>
<!-- PYTHON -->
<g id="node8" class="node">
<title>PYTHON</title>
<polygon fill="gold" stroke="black" points="202.5,-234 127.5,-234 127.5,-198 208.5,-198 208.5,-228 202.5,-234"/>
<polyline fill="none" stroke="black" points="202.5,-234 202.5,-228 "/>
<polyline fill="none" stroke="black" points="208.5,-228 202.5,-228 "/>
<text text-anchor="middle" x="168" y="-212.3" font-family="Times,serif" font-size="14.00">pyFoo.py</text>
</g>
<!-- SWIG&#45;&gt;PYTHON -->
<g id="edge10" class="edge">
<title>SWIG&#45;&gt;PYTHON</title>
<path fill="none" stroke="black" stroke-width="2" d="M391.29,-392.8C385.06,-368.09 370.09,-322.8 340,-298 296.65,-262.28 266.9,-292.65 218,-265 207.41,-259.01 197.39,-250.27 189.14,-241.89"/>
<polygon fill="black" stroke="black" stroke-width="2" points="191.49,-239.27 182.1,-234.37 186.38,-244.06 191.49,-239.27"/>
<text text-anchor="middle" x="389" y="-320.3" font-family="Times,serif" font-size="14.00">swig</text>
</g>
<!-- PKG -->
<g id="node2" class="node">
<title>PKG</title>
<polygon fill="royalblue" stroke="black" points="328,-518 180,-518 176,-514 176,-480 324,-480 328,-484 328,-518"/>
<polyline fill="none" stroke="black" points="324,-514 176,-514 "/>
<polyline fill="none" stroke="black" points="324,-514 324,-480 "/>
<polyline fill="none" stroke="black" points="324,-514 328,-518 "/>
<text text-anchor="middle" x="252" y="-502.8" font-family="Times,serif" font-size="14.00">C++ dev packages</text>
<text text-anchor="middle" x="252" y="-487.8" font-family="Times,serif" font-size="14.00">e.g. cmake, g++</text>
</g>
<!-- CPP -->
<g id="node3" class="node">
<title>CPP</title>
<polygon fill="royalblue" stroke="black" points="152,-517 24,-517 24,-481 158,-481 158,-511 152,-517"/>
<polyline fill="none" stroke="black" points="152,-517 152,-511 "/>
<polyline fill="none" stroke="black" points="158,-511 152,-511 "/>
<text text-anchor="middle" x="91" y="-495.3" font-family="Times,serif" font-size="14.00">Foo.hpp/Foo.cpp</text>
</g>
<!-- CPP&#45;&gt;SWIG -->
<g id="edge5" class="edge">
<title>CPP&#45;&gt;SWIG</title>
<path fill="none" stroke="black" stroke-dasharray="5,2" d="M154.6,-480.93C202.54,-467.94 270.16,-449.34 334.49,-430.6"/>
<polygon fill="black" stroke="black" points="335.75,-433.88 344.37,-427.71 333.79,-427.16 335.75,-433.88"/>
<text text-anchor="middle" x="297" y="-450.8" font-family="Times,serif" font-size="14.00">include</text>
</g>
<!-- LIB -->
<g id="node4" class="node">
<title>LIB</title>
<polygon fill="royalblue" stroke="black" points="115,-429 35,-429 35,-425 31,-425 31,-421 35,-421 35,-401 31,-401 31,-397 35,-397 35,-393 115,-393 115,-429"/>
<polyline fill="none" stroke="black" points="35,-425 39,-425 39,-421 35,-421 "/>
<polyline fill="none" stroke="black" points="35,-401 39,-401 39,-397 35,-397 "/>
<text text-anchor="middle" x="75" y="-407.3" font-family="Times,serif" font-size="14.00">libFoo.so</text>
</g>
<!-- CPP&#45;&gt;LIB -->
<g id="edge2" class="edge">
<title>CPP&#45;&gt;LIB</title>
<path fill="none" stroke="black" stroke-width="2" d="M87.76,-480.6C85.56,-468.75 82.59,-452.82 80.08,-439.29"/>
<polygon fill="black" stroke="black" stroke-width="2" points="83.45,-438.28 78.18,-429.08 76.57,-439.56 83.45,-438.28"/>
<text text-anchor="middle" x="112" y="-450.8" font-family="Times,serif" font-size="14.00">g++, ld</text>
</g>
<!-- CPP&#45;&gt;WRAPPER_CPP -->
<g id="edge1" class="edge">
<title>CPP&#45;&gt;WRAPPER_CPP</title>
<path fill="none" stroke="black" stroke-dasharray="5,2" d="M123.26,-480.98C130.9,-475.73 138.43,-469.36 144,-462 148.24,-456.4 144.49,-452.39 149,-447 152.85,-442.39 157.47,-438.29 162.44,-434.67"/>
<polygon fill="black" stroke="black" points="164.62,-437.42 171.06,-429.01 160.78,-431.57 164.62,-437.42"/>
<text text-anchor="middle" x="175" y="-450.8" font-family="Times,serif" font-size="14.00">include</text>
</g>
<!-- WRAPPER_LIB -->
<g id="node6" class="node">
<title>WRAPPER_LIB</title>
<polygon fill="royalblue" stroke="black" points="211,-342 125,-342 125,-338 121,-338 121,-334 125,-334 125,-314 121,-314 121,-310 125,-310 125,-306 211,-306 211,-342"/>
<polyline fill="none" stroke="black" points="125,-338 129,-338 129,-334 125,-334 "/>
<polyline fill="none" stroke="black" points="125,-314 129,-314 129,-310 125,-310 "/>
<text text-anchor="middle" x="168" y="-320.3" font-family="Times,serif" font-size="14.00">_pyFoo.so</text>
</g>
<!-- LIB&#45;&gt;WRAPPER_LIB -->
<g id="edge4" class="edge">
<title>LIB&#45;&gt;WRAPPER_LIB</title>
<path fill="none" stroke="black" stroke-dasharray="5,2" d="M93.82,-392.8C107.56,-380.24 126.37,-363.05 141.61,-349.12"/>
<polygon fill="black" stroke="black" points="144.19,-351.51 149.21,-342.18 139.47,-346.34 144.19,-351.51"/>
<text text-anchor="middle" x="135" y="-363.8" font-family="Times,serif" font-size="14.00">ld</text>
</g>
<!-- SETUP -->
<g id="node9" class="node">
<title>SETUP</title>
<polygon fill="gold" stroke="black" points="199,-147 127,-147 127,-111 205,-111 205,-141 199,-147"/>
<polyline fill="none" stroke="black" points="199,-147 199,-141 "/>
<polyline fill="none" stroke="black" points="205,-141 199,-141 "/>
<text text-anchor="middle" x="166" y="-125.3" font-family="Times,serif" font-size="14.00">setup.py</text>
</g>
<!-- LIB&#45;&gt;SETUP -->
<g id="edge11" class="edge">
<title>LIB&#45;&gt;SETUP</title>
<path fill="none" stroke="black" stroke-dasharray="5,2" d="M75.84,-392.85C78,-356.27 85.23,-268.22 107,-198 111.83,-182.43 112.88,-177.78 123,-165 126.05,-161.15 129.59,-157.44 133.31,-153.97"/>
<polygon fill="black" stroke="black" points="135.84,-156.41 141.09,-147.22 131.25,-151.13 135.84,-156.41"/>
</g>
<!-- WHL -->
<g id="node10" class="node">
<title>WHL</title>
<polygon fill="gold" stroke="black" points="339,-60 336,-64 315,-64 312,-60 137,-60 137,-24 339,-24 339,-60"/>
<text text-anchor="middle" x="238" y="-38.3" font-family="Times,serif" font-size="14.00">foo&#45;cp39&#45;linux&#45;x86_64.whl</text>
</g>
<!-- LIB&#45;&gt;WHL -->
<g id="edge12" class="edge">
<title>LIB&#45;&gt;WHL</title>
<path fill="none" stroke="black" stroke-dasharray="5,2" d="M61.12,-392.92C49.22,-376.53 34,-350.56 34,-325 34,-325 34,-325 34,-128 34,-81.79 79.16,-60.24 126.99,-50.39"/>
<polygon fill="black" stroke="black" points="127.72,-53.81 136.9,-48.51 126.42,-46.93 127.72,-53.81"/>
<text text-anchor="middle" x="51.5" y="-212.3" font-family="Times,serif" font-size="14.00">.libs/</text>
</g>
<!-- WRAPPER_CPP&#45;&gt;WRAPPER_LIB -->
<g id="edge3" class="edge">
<title>WRAPPER_CPP&#45;&gt;WRAPPER_LIB</title>
<path fill="none" stroke="black" stroke-width="2" d="M200.95,-392.91C197.23,-387.32 193.26,-381 190,-375 185.92,-367.5 181.99,-359.1 178.61,-351.35"/>
<polygon fill="black" stroke="black" stroke-width="2" points="181.78,-349.84 174.65,-342 175.33,-352.57 181.78,-349.84"/>
<text text-anchor="middle" x="218" y="-363.8" font-family="Times,serif" font-size="14.00">g++, ld</text>
</g>
<!-- WRAPPER_LIB&#45;&gt;PYTHON -->
<g id="edge13" class="edge">
<title>WRAPPER_LIB&#45;&gt;PYTHON</title>
<path fill="none" stroke="black" stroke-dasharray="5,2" d="M168,-305.97C168,-289.38 168,-263.88 168,-244.43"/>
<polygon fill="black" stroke="black" points="171.5,-244.34 168,-234.34 164.5,-244.34 171.5,-244.34"/>
<text text-anchor="middle" x="192.5" y="-276.8" font-family="Times,serif" font-size="14.00">dlopen</text>
</g>
<!-- WRAPPER_LIB&#45;&gt;SETUP -->
<g id="edge14" class="edge">
<title>WRAPPER_LIB&#45;&gt;SETUP</title>
<path fill="none" stroke="black" stroke-dasharray="5,2" d="M147.44,-305.96C136.43,-295.45 123.93,-280.95 118,-265 107.63,-237.09 108.99,-226.38 118,-198 123.01,-182.22 133.15,-166.95 142.82,-154.88"/>
<polygon fill="black" stroke="black" points="145.62,-156.99 149.38,-147.08 140.26,-152.49 145.62,-156.99"/>
</g>
<!-- WRAPPER_LIB&#45;&gt;WHL -->
<g id="edge15" class="edge">
<title>WRAPPER_LIB&#45;&gt;WHL</title>
<path fill="none" stroke="black" stroke-dasharray="5,2" d="M196.69,-305.91C202.59,-302.92 208.88,-300.1 215,-298 296.5,-270.09 350.51,-330.9 406,-265 465.29,-194.59 343.38,-106.07 277.07,-65.36"/>
<polygon fill="black" stroke="black" points="278.86,-62.36 268.49,-60.17 275.24,-68.35 278.86,-62.36"/>
<text text-anchor="middle" x="422.5" y="-168.8" font-family="Times,serif" font-size="14.00">Foo/</text>
</g>
<!-- WHL_PKG -->
<g id="node7" class="node">
<title>WHL_PKG</title>
<polygon fill="gold" stroke="black" points="397,-234 231,-234 227,-230 227,-198 393,-198 397,-202 397,-234"/>
<polyline fill="none" stroke="black" points="393,-230 227,-230 "/>
<polyline fill="none" stroke="black" points="393,-230 393,-198 "/>
<polyline fill="none" stroke="black" points="393,-230 397,-234 "/>
<text text-anchor="middle" x="312" y="-212.3" font-family="Times,serif" font-size="14.00">Python wheel module</text>
</g>
<!-- PYTHON&#45;&gt;SETUP -->
<g id="edge7" class="edge">
<title>PYTHON&#45;&gt;SETUP</title>
<path fill="none" stroke="black" stroke-dasharray="5,2" d="M167.6,-197.8C167.32,-186.16 166.95,-170.55 166.64,-157.24"/>
<polygon fill="black" stroke="black" points="170.14,-157.09 166.4,-147.18 163.14,-157.26 170.14,-157.09"/>
</g>
<!-- PYTHON&#45;&gt;WHL -->
<g id="edge8" class="edge">
<title>PYTHON&#45;&gt;WHL</title>
<path fill="none" stroke="black" stroke-dasharray="5,2" d="M183.7,-197.63C202.63,-175.34 233.23,-134.55 244,-93 245.88,-85.75 245.83,-77.76 244.93,-70.33"/>
<polygon fill="black" stroke="black" points="248.36,-69.6 243.21,-60.34 241.46,-70.79 248.36,-69.6"/>
<text text-anchor="middle" x="252.5" y="-125.3" font-family="Times,serif" font-size="14.00">Foo/</text>
</g>
<!-- SETUP&#45;&gt;WHL -->
<g id="edge9" class="edge">
<title>SETUP&#45;&gt;WHL</title>
<path fill="none" stroke="black" stroke-width="2" d="M158.22,-111C154.75,-100.69 152.69,-87.7 159,-78 161.94,-73.48 165.62,-69.54 169.76,-66.1"/>
<polygon fill="black" stroke="black" stroke-width="2" points="172.09,-68.74 178.23,-60.1 168.05,-63.03 172.09,-68.74"/>
<text text-anchor="middle" x="201.5" y="-81.8" font-family="Times,serif" font-size="14.00">bdist_wheel</text>
</g>
</g>
</svg>
